<svg version="1.1" xmlns="http://www.w3.org/2000/svg" viewBox="0 0 1340.0413294367654 1882.5128786113523" width="2680.082658873531" height="3765.0257572227047">
  <!-- svg-source:excalidraw -->
  
  <defs>
    <style class="style-fonts">
      @font-face {
        font-family: "Virgil";
        src: url("https://excalidraw.com/Virgil.woff2");
      }
      @font-face {
        font-family: "Cascadia";
        src: url("https://excalidraw.com/Cascadia.woff2");
      }
    </style>
    
  </defs>
  <rect x="0" y="0" width="1340.0413294367654" height="1882.5128786113523" fill="#ffffff"></rect><g stroke-linecap="round" transform="translate(214.85399805171528 1028.0030902719404) rotate(0 459 191)"><path d="M7.86 8.16 C7.86 8.16, 7.86 8.16, 7.86 8.16 M7.86 8.16 C7.86 8.16, 7.86 8.16, 7.86 8.16 M3.66 19.09 C8.16 14.92, 13.61 9.07, 18.1 2.48 M3.66 19.09 C10.21 13.4, 14.42 5.89, 18.1 2.48 M2.75 26.24 C10.45 16.52, 21.17 7.11, 24.4 1.33 M2.75 26.24 C10.46 17.19, 20.31 7.04, 24.4 1.33 M1.83 33.39 C11.76 22.46, 23.11 10.74, 30.7 0.18 M1.83 33.39 C12.56 21.61, 22.47 10.26, 30.7 0.18 M1.57 39.79 C7.94 29.88, 17.67 23.94, 34.37 2.05 M1.57 39.79 C10.98 29.85, 18 19.76, 34.37 2.05 M1.96 45.43 C10.6 36.08, 16.27 28.82, 39.36 2.41 M1.96 45.43 C15.58 30.96, 28.58 14.33, 39.36 2.41 M1.7 51.83 C10.2 41.66, 21.88 28.25, 45 2.02 M1.7 51.83 C13.62 38.27, 23.15 25.88, 45 2.02 M1.44 58.23 C15.84 40.73, 30.01 21.79, 49.99 2.38 M1.44 58.23 C17.14 40.25, 34.54 21.73, 49.99 2.38 M1.83 63.87 C20.88 41.93, 38.94 18.37, 55.63 1.98 M1.83 63.87 C17.88 45.1, 32.91 27.07, 55.63 1.98 M1.57 70.27 C22.38 45.53, 40.59 25.7, 60.62 2.34 M1.57 70.27 C16.65 54.16, 29.91 36.49, 60.62 2.34 M1.97 75.91 C24.83 48.72, 48.61 21.6, 66.26 1.95 M1.97 75.91 C22.72 51.25, 44.44 27.26, 66.26 1.95 M1.71 82.31 C24.94 54.78, 49.49 23.93, 71.25 2.31 M1.71 82.31 C28.06 51.09, 55.34 18.34, 71.25 2.31 M1.44 88.71 C17.34 68.26, 37.17 47.68, 76.89 1.91 M1.44 88.71 C31.07 54.26, 60.54 20.61, 76.89 1.91 M1.84 94.35 C31.19 59.07, 62.41 27.15, 81.88 2.27 M1.84 94.35 C25.94 65.95, 50.75 36.23, 81.88 2.27 M1.58 100.75 C24.36 74.55, 43.67 49.37, 87.52 1.88 M1.58 100.75 C27.74 70.56, 53.46 39.38, 87.52 1.88 M1.97 106.39 C24.7 78.14, 48.06 54.14, 92.51 2.24 M1.97 106.39 C26.23 79.27, 49.89 51.22, 92.51 2.24 M1.71 112.79 C31.52 80.08, 59.95 47.87, 98.15 1.85 M1.71 112.79 C36.52 73.47, 69.63 35.48, 98.15 1.85 M1.45 119.19 C42.61 76.75, 78.38 31.71, 103.14 2.21 M1.45 119.19 C36.12 79.02, 72.23 38.07, 103.14 2.21 M1.84 124.83 C31.15 90.06, 60.49 57.9, 108.78 1.81 M1.84 124.83 C25.59 97.98, 48.05 70.38, 108.78 1.81 M1.58 131.23 C25.03 104.37, 45.85 79.61, 113.77 2.17 M1.58 131.23 C26.26 104.75, 50.03 75.06, 113.77 2.17 M1.98 136.87 C47.08 84.42, 94.1 33.58, 119.41 1.78 M1.98 136.87 C34.54 97.74, 67.95 59.24, 119.41 1.78 M1.72 143.27 C38.13 102.3, 74.37 58.51, 124.4 2.14 M1.72 143.27 C43.03 95.45, 84.75 47.19, 124.4 2.14 M1.45 149.67 C29.05 116.5, 54.51 85.96, 130.04 1.74 M1.45 149.67 C39.64 103.97, 77.98 59.51, 130.04 1.74 M1.85 155.31 C36.62 115.85, 73.15 75.79, 135.03 2.1 M1.85 155.31 C47.54 105.02, 90.98 52.57, 135.03 2.1 M1.59 161.71 C29.61 129.4, 60.05 97.82, 140.67 1.71 M1.59 161.71 C45.05 111.45, 87.09 61.62, 140.67 1.71 M1.98 167.35 C40.07 126.63, 75.33 83.96, 145.66 2.07 M1.98 167.35 C36.43 125.44, 72.09 84.14, 145.66 2.07 M1.72 173.75 C36.82 132.08, 71.62 91.29, 150.65 2.43 M1.72 173.75 C53.32 114.46, 103.79 55.68, 150.65 2.43 M1.46 180.14 C44.24 132.67, 83.37 83.86, 156.29 2.03 M1.46 180.14 C42.89 135, 81.89 87.65, 156.29 2.03 M1.85 185.79 C40.57 139.49, 83.13 90.93, 161.28 2.39 M1.85 185.79 C53.12 127.37, 103.94 69.73, 161.28 2.39 M1.59 192.19 C37.16 147.7, 74.44 106.7, 166.92 2 M1.59 192.19 C67.93 116.16, 133.95 41.26, 166.92 2 M1.99 197.83 C68.63 119.01, 135.96 42.13, 171.91 2.36 M1.99 197.83 C58.3 132.38, 115.57 66.92, 171.91 2.36 M1.72 204.23 C54.74 143.79, 104.4 85.78, 177.55 1.96 M1.72 204.23 C37.77 163.57, 74.52 121.46, 177.55 1.96 M1.46 210.62 C52.56 153.8, 103.42 97.61, 182.54 2.32 M1.46 210.62 C66.58 135.2, 134.41 57.52, 182.54 2.32 M1.86 216.27 C73.45 132.4, 144.95 50.93, 188.18 1.93 M1.86 216.27 C54.92 154.57, 109.89 92.37, 188.18 1.93 M1.6 222.66 C64.42 150.55, 124.84 81.75, 193.17 2.29 M1.6 222.66 C39.86 177.14, 79.41 131.41, 193.17 2.29 M1.99 228.31 C50.84 171.53, 101.15 115.42, 198.81 1.9 M1.99 228.31 C76.31 142.79, 150.33 57.14, 198.81 1.9 M1.73 234.71 C43.43 185.41, 88.25 132.03, 203.8 2.26 M1.73 234.71 C61.84 165.88, 122.03 96.14, 203.8 2.26 M1.47 241.1 C77.97 154.66, 155.52 66.04, 209.44 1.86 M1.47 241.1 C45.85 188.02, 91.94 135.77, 209.44 1.86 M1.86 246.75 C61.88 177.43, 121.92 110.08, 214.43 2.22 M1.86 246.75 C66.24 174.11, 130.68 100.44, 214.43 2.22 M1.6 253.14 C58.37 187.74, 117.07 122.17, 220.07 1.83 M1.6 253.14 C74.43 170.03, 146.02 88.66, 220.07 1.83 M2 258.79 C65.18 185.24, 126.49 116, 225.06 2.19 M2 258.79 C73.22 173.77, 146.31 89.38, 225.06 2.19 M1.73 265.19 C48.33 211.63, 95.03 157.02, 230.7 1.79 M1.73 265.19 C55.75 203.75, 108.81 142.25, 230.7 1.79 M1.47 271.58 C91.59 169.98, 180.78 66.53, 235.69 2.15 M1.47 271.58 C71.82 190.09, 143.89 108.28, 235.69 2.15 M1.87 277.23 C71.38 198.4, 139.01 119.56, 241.33 1.76 M1.87 277.23 C50.07 217.92, 100.51 159.77, 241.33 1.76 M1.61 283.62 C62.46 209.3, 126.08 137.94, 246.32 2.12 M1.61 283.62 C59.81 218.42, 116.81 152.5, 246.32 2.12 M2 289.27 C92.87 185.3, 182.47 82.82, 251.96 1.72 M2 289.27 C92.89 183.89, 184.07 78.65, 251.96 1.72 M1.74 295.66 C89.34 194.46, 177.42 93.23, 256.95 2.08 M1.74 295.66 C77.43 206.21, 154.03 118.09, 256.95 2.08 M1.48 302.06 C80.22 211.57, 157.9 122.19, 262.59 1.69 M1.48 302.06 C88.97 200.51, 177.85 97.79, 262.59 1.69 M1.87 307.71 C105.92 188.48, 209.63 69.98, 267.58 2.05 M1.87 307.71 C103.46 190.03, 204.41 73.94, 267.58 2.05 M1.61 314.1 C89.26 212.01, 177.79 109.05, 272.56 2.41 M1.61 314.1 C60.56 245.22, 119.65 177.24, 272.56 2.41 M2.01 319.75 C89.84 221.11, 176.21 119.84, 278.21 2.01 M2.01 319.75 C94.77 213.31, 186.74 106.76, 278.21 2.01 M1.74 326.14 C86.62 227.49, 172.39 129.43, 283.19 2.37 M1.74 326.14 C62.13 256.87, 122.07 188.3, 283.19 2.37 M1.48 332.54 C100.21 221.35, 197.13 109.82, 288.84 1.98 M1.48 332.54 C91.76 230.49, 181.36 127.91, 288.84 1.98 M1.88 338.19 C67.91 262.06, 133.35 188.5, 293.82 2.34 M1.88 338.19 C110.59 212.42, 220.22 86.38, 293.82 2.34 M1.62 344.58 C81.31 253.66, 159.99 162.19, 299.47 1.94 M1.62 344.58 C72.65 264.57, 142.88 184.28, 299.47 1.94 M1.35 350.98 C98.13 236.69, 198.85 122.71, 304.45 2.3 M1.35 350.98 C90.57 246.75, 179.93 143.63, 304.45 2.3 M1.75 356.62 C122.91 219.97, 241.72 81.71, 310.1 1.91 M1.75 356.62 C104.33 238.91, 206.44 121.59, 310.1 1.91 M2.8 361.51 C123.07 223.07, 245.23 82.41, 315.08 2.27 M2.8 361.51 C126.69 220.91, 249.91 78.75, 315.08 2.27 M4.51 365.65 C126.35 223.99, 251.2 81.61, 320.73 1.88 M4.51 365.65 C69.01 294.12, 132.76 220.68, 320.73 1.88 M5.56 370.53 C77.06 288.33, 148.47 205.06, 325.71 2.24 M5.56 370.53 C78.59 284.61, 153.45 199.46, 325.71 2.24 M8.58 373.16 C87.32 280.97, 167.6 189.33, 331.36 1.84 M8.58 373.16 C114.8 250.58, 222.48 127.5, 331.36 1.84 M11.59 375.78 C136.48 230.47, 262.65 85.3, 336.34 2.2 M11.59 375.78 C78.7 300.94, 145.12 224.36, 336.34 2.2 M13.96 379.16 C117.56 260.27, 221.36 140.87, 341.99 1.81 M13.96 379.16 C80.28 302.61, 146.56 226.12, 341.99 1.81 M18.29 380.28 C110.06 277.59, 199.81 173.1, 346.97 2.17 M18.29 380.28 C98.89 288.81, 177.51 197.47, 346.97 2.17 M23.28 380.64 C104.21 286.66, 186.98 191.62, 352.62 1.77 M23.28 380.64 C145.95 238.6, 270.06 95.9, 352.62 1.77 M27.61 381.75 C99.35 299.45, 169.59 218.19, 357.6 2.13 M27.61 381.75 C130.4 263.39, 232.78 144.99, 357.6 2.13 M32.59 382.11 C126.04 271.72, 221.04 162.64, 363.25 1.74 M32.59 382.11 C163.08 232.24, 293.99 81.62, 363.25 1.74 M37.58 382.47 C162.72 237.63, 288.19 93.35, 368.23 2.1 M37.58 382.47 C143.63 262.56, 248.04 142.4, 368.23 2.1 M43.22 382.08 C161.14 246.2, 279.66 111.16, 373.88 1.7 M43.22 382.08 C143.4 268.2, 241.67 154.38, 373.88 1.7 M48.21 382.44 C142.21 274.61, 234.71 169.18, 378.86 2.06 M48.21 382.44 C179.83 232.2, 310.92 81.07, 378.86 2.06 M53.85 382.04 C177.42 239.22, 300.99 96.21, 383.85 2.42 M53.85 382.04 C153.22 269.03, 252.75 154.39, 383.85 2.42 M58.84 382.4 C149.45 280.52, 237.38 177.94, 389.49 2.03 M58.84 382.4 C134.97 297.25, 209.65 210.94, 389.49 2.03 M64.48 382.01 C179.15 249.24, 294.61 116.25, 394.48 2.39 M64.48 382.01 C167.53 264.55, 270.77 146.29, 394.48 2.39 M69.47 382.37 C145.44 296.61, 221.58 209.33, 400.12 1.99 M69.47 382.37 C173.22 262.76, 278.31 142.13, 400.12 1.99 M75.11 381.97 C168.15 277.01, 260.51 171.81, 405.11 2.35 M75.11 381.97 C149.19 297.27, 221.83 213.55, 405.11 2.35 M80.1 382.33 C178.54 269.76, 274.73 157.71, 410.75 1.96 M80.1 382.33 C183.16 263.6, 287.03 144.22, 410.75 1.96 M85.09 382.69 C165.36 289.19, 246.38 196.25, 415.74 2.32 M85.09 382.69 C152.32 305.17, 219.31 227.2, 415.74 2.32 M90.73 382.3 C199.59 258.45, 307.23 134.31, 421.38 1.93 M90.73 382.3 C189.47 266.6, 290.04 151.56, 421.38 1.93 M95.72 382.66 C200.5 259.99, 306.64 139.58, 426.37 2.29 M95.72 382.66 C169.56 296.62, 244.74 210.54, 426.37 2.29 M101.36 382.26 C179.08 292.71, 256.05 203.48, 432.01 1.89 M101.36 382.26 C201.31 267.55, 300.61 153.63, 432.01 1.89 M106.35 382.62 C195.38 280.93, 282.7 179.96, 437 2.25 M106.35 382.62 C219.99 254.38, 331.46 125.17, 437 2.25 M111.99 382.23 C197.79 284.39, 284.17 185.17, 442.64 1.86 M111.99 382.23 C229.43 244.77, 348.53 108.15, 442.64 1.86 M116.98 382.59 C197.74 290.63, 278.76 197.72, 447.63 2.22 M116.98 382.59 C240.8 241.14, 363.78 99.16, 447.63 2.22 M122.62 382.2 C219.24 270.66, 316.8 158.36, 453.27 1.82 M122.62 382.2 C212.66 277.1, 303.34 172.43, 453.27 1.82 M127.61 382.56 C221.38 274.62, 315.99 165.05, 458.26 2.18 M127.61 382.56 C210.18 288.46, 292.85 193.03, 458.26 2.18 M133.25 382.16 C249.56 249.18, 366.45 115.64, 463.9 1.79 M133.25 382.16 C222.28 279.88, 311.76 177.02, 463.9 1.79 M138.24 382.52 C211.82 298.57, 284.34 214.15, 468.89 2.15 M138.24 382.52 C231.62 275.7, 324.1 168.46, 468.89 2.15 M143.88 382.13 C242.11 268.47, 340.15 154.86, 474.53 1.75 M143.88 382.13 C245.49 265.51, 347.33 147.82, 474.53 1.75 M148.87 382.49 C273.91 239.45, 398.41 95.67, 479.52 2.11 M148.87 382.49 C231.97 284.89, 316.19 188.73, 479.52 2.11 M154.51 382.09 C265.07 254.6, 376.97 126.86, 485.17 1.72 M154.51 382.09 C284.05 235.04, 412.24 86.66, 485.17 1.72 M159.5 382.45 C243.24 283.62, 329.38 185.74, 490.15 2.08 M159.5 382.45 C274.91 248.21, 391.17 114.29, 490.15 2.08 M165.14 382.06 C266.48 266.89, 367.36 152.6, 495.8 1.68 M165.14 382.06 C246.53 288.42, 327.97 195.77, 495.8 1.68 M170.13 382.42 C256.32 282.93, 342.13 185.77, 500.78 2.04 M170.13 382.42 C247.51 293.64, 325.15 204.31, 500.78 2.04 M175.77 382.02 C301.2 236.71, 427.23 91.24, 505.77 2.4 M175.77 382.02 C256.71 288.6, 338.71 194.82, 505.77 2.4 M180.76 382.38 C301.43 242.81, 422.64 103.47, 511.41 2.01 M180.76 382.38 C299.67 244.52, 419.09 108.18, 511.41 2.01 M186.4 381.99 C313.54 233.63, 442.14 85.74, 516.4 2.37 M186.4 381.99 C285.39 266.15, 385.7 151.33, 516.4 2.37 M191.39 382.35 C275.94 282.1, 360.36 184.26, 522.04 1.98 M191.39 382.35 C277.2 285.11, 362.69 186.5, 522.04 1.98 M196.38 382.71 C288.12 276.33, 380.64 170.66, 527.03 2.34 M196.38 382.71 C312.01 248.07, 427.91 114.38, 527.03 2.34 M202.02 382.31 C333.32 231.13, 465.34 79.66, 532.67 1.94 M202.02 382.31 C286.36 284.95, 370.53 188.79, 532.67 1.94 M207.01 382.67 C290.19 286.9, 374.08 190.02, 537.66 2.3 M207.01 382.67 C298.52 279.17, 388.88 175.24, 537.66 2.3 M212.65 382.28 C325.4 252.8, 437.2 123.12, 543.3 1.91 M212.65 382.28 C329.18 245.78, 447.3 110.02, 543.3 1.91 M217.64 382.64 C298.95 290.88, 381 197.27, 548.29 2.27 M217.64 382.64 C344.2 237.51, 470.91 91.3, 548.29 2.27 M223.28 382.25 C295.74 296.56, 370.46 211.71, 553.93 1.87 M223.28 382.25 C343.7 243.98, 463.54 106.25, 553.93 1.87 M228.27 382.61 C304.35 293.91, 380.56 206.17, 558.92 2.23 M228.27 382.61 C336.94 258.31, 445.67 133.32, 558.92 2.23 M233.91 382.21 C327.48 274.13, 421.06 165.74, 564.56 1.84 M233.91 382.21 C348.32 250.35, 462.92 118.58, 564.56 1.84 M238.9 382.57 C343.54 260.57, 450.33 139.39, 569.55 2.2 M238.9 382.57 C369.28 231.39, 501.18 80.16, 569.55 2.2 M244.54 382.18 C357.16 252.43, 469.27 123.01, 575.19 1.8 M244.54 382.18 C368.92 236.68, 494.91 92.26, 575.19 1.8 M249.53 382.54 C337.89 281.29, 426.71 179.06, 580.18 2.16 M249.53 382.54 C320.44 301.34, 389.99 221.47, 580.18 2.16 M255.17 382.14 C354.8 266.56, 455.5 150.43, 585.82 1.77 M255.17 382.14 C327.12 301.08, 398.26 220.11, 585.82 1.77 M260.16 382.5 C381.96 241.63, 504.39 101.85, 590.81 2.13 M260.16 382.5 C333.54 296.04, 408.74 209.99, 590.81 2.13 M265.8 382.11 C355.99 279.6, 447.02 175.38, 596.45 1.73 M265.8 382.11 C394.4 233.87, 522.08 86.81, 596.45 1.73 M270.79 382.47 C387.29 249.19, 503.51 116.23, 601.44 2.09 M270.79 382.47 C348.34 292.05, 426.91 201.55, 601.44 2.09 M276.43 382.07 C353.11 295.2, 430.02 205.98, 607.08 1.7 M276.43 382.07 C382.6 260.48, 488.89 138.51, 607.08 1.7 M281.42 382.43 C373.77 273.77, 468.29 166.66, 612.07 2.06 M281.42 382.43 C373.13 277.17, 463.56 172.87, 612.07 2.06 M287.06 382.04 C406.74 245.27, 526.38 106.6, 617.06 2.42 M287.06 382.04 C362.43 295.01, 437.94 208.28, 617.06 2.42 M292.05 382.4 C382.55 276.35, 474.36 171.96, 622.7 2.02 M292.05 382.4 C392.16 268.42, 492.31 152.86, 622.7 2.02 M297.69 382 C407.22 257.27, 516.7 131.86, 627.69 2.38 M297.69 382 C366.91 303.4, 434.21 225.63, 627.69 2.38 M302.68 382.36 C429.79 238.62, 554.15 94.44, 633.33 1.99 M302.68 382.36 C411.17 259.01, 518.35 135.53, 633.33 1.99 M308.32 381.97 C435.95 234.41, 562.23 86.98, 638.32 2.35 M308.32 381.97 C416.92 257.19, 526.66 131.13, 638.32 2.35 M313.31 382.33 C404.94 276.02, 496.08 171.84, 643.96 1.96 M313.31 382.33 C404.94 277.16, 496.13 172.11, 643.96 1.96 M318.29 382.69 C412.19 276.26, 503.79 169.95, 648.95 2.32 M318.29 382.69 C444.27 237.87, 569.42 94.19, 648.95 2.32 M323.94 382.29 C454.11 232.12, 585.17 82.08, 654.59 1.92 M323.94 382.29 C433.64 256.78, 543.32 130.74, 654.59 1.92 M328.92 382.65 C440.63 254.39, 553.91 124.1, 659.58 2.28 M328.92 382.65 C425.78 270.48, 523.6 157.46, 659.58 2.28 M334.57 382.26 C402.79 303.44, 468.54 227.62, 665.22 1.89 M334.57 382.26 C467.25 229.67, 599.07 78.09, 665.22 1.89 M339.55 382.62 C470.46 232.8, 600.29 83.02, 670.21 2.25 M339.55 382.62 C447.06 257.05, 554.96 132.83, 670.21 2.25 M345.2 382.23 C443.79 268.27, 544 154.14, 675.85 1.85 M345.2 382.23 C420.38 296.54, 495.12 210.79, 675.85 1.85 M350.18 382.59 C430.84 290.22, 513.51 195.92, 680.84 2.21 M350.18 382.59 C448.03 270.29, 546.25 157.59, 680.84 2.21 M355.83 382.19 C466.58 255.23, 575.91 127.62, 686.48 1.82 M355.83 382.19 C451.95 272.43, 548.23 160.83, 686.48 1.82 M360.81 382.55 C429.02 305.02, 494.77 228.36, 691.47 2.18 M360.81 382.55 C464.35 261.14, 568.71 141.08, 691.47 2.18 M366.46 382.16 C459.9 275.29, 553.23 166.99, 697.11 1.78 M366.46 382.16 C471.76 260.84, 575.65 141.06, 697.11 1.78 M371.44 382.52 C486.96 249.45, 603.42 116.47, 702.1 2.14 M371.44 382.52 C463.71 274.82, 557.05 166.97, 702.1 2.14 M377.09 382.12 C501.48 240.21, 625.32 99.05, 707.74 1.75 M377.09 382.12 C490.92 248.9, 605.99 116.47, 707.74 1.75 M382.07 382.48 C471.2 278.95, 560.43 176.69, 712.73 2.11 M382.07 382.48 C508.77 238.23, 635.24 93.64, 712.73 2.11 M387.72 382.09 C507.13 245.74, 626.02 107.92, 718.37 1.71 M387.72 382.09 C479.74 275.51, 571.82 169.53, 718.37 1.71 M392.7 382.45 C501.31 259.32, 609.15 133.68, 723.36 2.07 M392.7 382.45 C517.63 239.89, 643.25 95.59, 723.36 2.07 M398.35 382.05 C479.72 285.23, 562.12 190.39, 729 1.68 M398.35 382.05 C509.07 255.29, 620.32 127.71, 729 1.68 M403.33 382.41 C527.49 237.93, 651.77 94.03, 733.99 2.04 M403.33 382.41 C514.6 256.11, 624.73 128.94, 733.99 2.04 M408.98 382.02 C532.36 240.49, 656.46 97.8, 738.98 2.4 M408.98 382.02 C531.2 239.45, 655.28 97.19, 738.98 2.4 M413.96 382.38 C503.83 278.93, 592.81 176.87, 744.62 2.01 M413.96 382.38 C508.65 275.29, 603.22 166.66, 744.62 2.01 M419.61 381.98 C524.6 261.93, 629.51 143.06, 749.61 2.37 M419.61 381.98 C552.56 231.46, 683.34 80.11, 749.61 2.37 M424.59 382.34 C536.61 252.99, 647.82 124.61, 755.25 1.97 M424.59 382.34 C543.53 243.63, 662.78 106.19, 755.25 1.97 M429.58 382.7 C557.41 236.43, 685.69 88.36, 760.24 2.33 M429.58 382.7 C507.96 292.58, 585.4 203.49, 760.24 2.33 M435.22 382.31 C534.55 265.7, 634.82 151.38, 765.88 1.94 M435.22 382.31 C527.57 278.43, 619 173.05, 765.88 1.94 M440.21 382.67 C556.03 249.2, 671.55 115.51, 770.87 2.3 M440.21 382.67 C524.7 286.88, 608.88 190.14, 770.87 2.3 M445.85 382.28 C572.13 237.64, 698.11 91.86, 776.51 1.9 M445.85 382.28 C521.71 294.95, 598.12 208.41, 776.51 1.9 M450.84 382.64 C548.49 270.99, 646.34 160.19, 781.5 2.26 M450.84 382.64 C536.03 282.35, 622.86 183.08, 781.5 2.26 M456.48 382.24 C578.82 239.75, 703.1 98.22, 787.14 1.87 M456.48 382.24 C523.72 305.12, 590.64 227.77, 787.14 1.87 M461.47 382.6 C579.78 246.27, 697.76 111.98, 792.13 2.23 M461.47 382.6 C593.69 232.31, 724.71 80.94, 792.13 2.23 M467.11 382.21 C589.82 240.44, 712.09 98.52, 797.77 1.83 M467.11 382.21 C555.37 279.68, 645.69 176.12, 797.77 1.83 M472.1 382.57 C542.22 302.91, 610.42 225.21, 802.76 2.19 M472.1 382.57 C551.88 292.65, 630.77 202.09, 802.76 2.19 M477.74 382.17 C561.28 285.54, 645.38 189.29, 808.4 1.8 M477.74 382.17 C574.65 273.06, 670.4 162.2, 808.4 1.8 M482.73 382.53 C601.43 245.64, 720.12 108.3, 813.39 2.16 M482.73 382.53 C579.09 268.88, 677.71 155.51, 813.39 2.16 M488.38 382.14 C616.88 232.73, 746.53 84.49, 819.03 1.76 M488.38 382.14 C554.39 305.39, 620.61 228.74, 819.03 1.76 M493.36 382.5 C584.21 280.23, 673.36 177.07, 824.02 2.12 M493.36 382.5 C598.51 261.04, 704.1 139.55, 824.02 2.12 M499.01 382.1 C610.38 251.76, 723.03 122.99, 829.66 1.73 M499.01 382.1 C608.77 254.91, 720.06 126.79, 829.66 1.73 M503.99 382.46 C578.44 299.88, 650.83 215.19, 834.65 2.09 M503.99 382.46 C634.51 232.74, 765.33 82.11, 834.65 2.09 M509.64 382.07 C624.56 249.65, 739.64 116.87, 840.29 1.69 M509.64 382.07 C611.59 264.59, 712.66 147.93, 840.29 1.69 M514.62 382.43 C596.11 289.26, 677.82 196.69, 845.28 2.06 M514.62 382.43 C593.31 292.84, 672.49 201.48, 845.28 2.06 M520.27 382.03 C604.39 285.13, 689.25 187.56, 850.26 2.42 M520.27 382.03 C624.03 263.34, 727.82 143.25, 850.26 2.42 M525.25 382.39 C595.19 302.43, 664.78 222.57, 855.91 2.02 M525.25 382.39 C626.72 263.48, 729.38 145.46, 855.91 2.02 M530.9 382 C656.69 235.6, 782.74 91.5, 860.89 2.38 M530.9 382 C614.28 287.16, 696.93 192.23, 860.89 2.38 M535.88 382.36 C643.63 257.74, 751.07 133.58, 866.54 1.99 M535.88 382.36 C635.99 267.41, 735.62 153.28, 866.54 1.99 M541.53 381.97 C624.45 288.11, 704.06 195.02, 871.52 2.35 M541.53 381.97 C666.63 236.88, 791.74 92.74, 871.52 2.35 M546.51 382.33 C624.59 292.43, 702.95 202.3, 877.17 1.95 M546.51 382.33 C624.49 292.79, 703.02 202.04, 877.17 1.95 M551.5 382.69 C633.93 287.13, 716.21 193.09, 882.15 2.31 M551.5 382.69 C638.84 281.84, 726.72 181.19, 882.15 2.31 M557.14 382.29 C663.74 258.53, 772.4 133.01, 887.8 1.92 M557.14 382.29 C684.66 236.9, 812.66 89.17, 887.8 1.92 M562.13 382.65 C689.81 237.63, 816.98 92.46, 892.78 2.28 M562.13 382.65 C647.13 286.76, 730.3 190.23, 892.78 2.28 M567.77 382.26 C643.05 296.51, 717.8 210.98, 897.11 3.39 M567.77 382.26 C680.74 252.06, 794.81 120.46, 897.11 3.39 M572.76 382.62 C682.08 257.12, 790.25 130.33, 902.1 3.75 M572.76 382.62 C695.78 242.39, 817.61 102.62, 902.1 3.75 M578.4 382.22 C675.16 272.25, 770.14 161.71, 906.43 4.87 M578.4 382.22 C695.48 248.91, 810.8 115.76, 906.43 4.87 M583.39 382.58 C703.49 245.48, 822.28 108.62, 908.8 8.25 M583.39 382.58 C660.73 295.09, 736.42 206.66, 908.8 8.25 M589.03 382.19 C694.05 258.26, 801.86 134.97, 911.81 10.87 M589.03 382.19 C711.03 243.83, 832.68 103.49, 911.81 10.87 M594.02 382.55 C672.23 292.21, 750.92 203.34, 914.83 13.49 M594.02 382.55 C705.97 254.48, 817.9 126, 914.83 13.49 M599.66 382.15 C690.23 279.52, 779.85 176.46, 915.88 18.38 M599.66 382.15 C672.06 299.82, 743.77 217.5, 915.88 18.38 M604.65 382.51 C701.69 270.24, 799.93 156.11, 916.93 23.27 M604.65 382.51 C728.79 239.18, 854.04 95.64, 916.93 23.27 M610.29 382.12 C713.65 265.04, 815.4 147.74, 917.33 28.91 M610.29 382.12 C687.99 292.47, 764.32 204.7, 917.33 28.91 M615.28 382.48 C681.3 306.5, 746.18 231.2, 919.04 33.05 M615.28 382.48 C727.18 255.07, 836.76 128.51, 919.04 33.05 M620.92 382.08 C737.63 245.95, 854.31 110.47, 919.43 38.69 M620.92 382.08 C687.42 307.6, 753.09 231.47, 919.43 38.69 M625.91 382.44 C736.86 254.99, 846.78 127.64, 919.17 45.09 M625.91 382.44 C744.3 249.56, 860.77 115.38, 919.17 45.09 M631.55 382.05 C697.01 305.62, 764.23 230.96, 918.91 51.49 M631.55 382.05 C705.52 296.74, 780.12 210.71, 918.91 51.49 M636.54 382.41 C723.14 282.72, 812.6 181.07, 919.3 57.13 M636.54 382.41 C735.51 268.26, 834.38 154.21, 919.3 57.13 M642.18 382.01 C735.65 275.77, 827.8 169.36, 919.04 63.53 M642.18 382.01 C729.39 282.78, 816.54 183.07, 919.04 63.53 M647.17 382.37 C734.66 280.71, 825.1 179.25, 919.43 69.17 M647.17 382.37 C718.21 303.34, 787.91 224.1, 919.43 69.17 M652.81 381.98 C718.65 302.77, 787.3 226.11, 919.17 75.57 M652.81 381.98 C726.13 299.86, 799.2 216.97, 919.17 75.57 M657.8 382.34 C713.75 318.86, 769 254.82, 918.91 81.97 M657.8 382.34 C717.12 313.21, 775.46 245.33, 918.91 81.97 M662.79 382.7 C727.04 306.37, 793.76 232.15, 919.31 87.61 M662.79 382.7 C729.07 307.86, 795.21 231.45, 919.31 87.61 M668.43 382.31 C756.49 278.06, 844.94 176.89, 919.05 94.01 M668.43 382.31 C761.08 275.92, 853.4 169.67, 919.05 94.01 M673.42 382.67 C735.92 310.92, 797.98 235.91, 918.78 100.4 M673.42 382.67 C753.51 289.56, 834.03 195.81, 918.78 100.4 M679.06 382.27 C733.53 319.33, 786.62 255.73, 919.18 106.05 M679.06 382.27 C743.73 305.78, 810.04 229.55, 919.18 106.05 M684.05 382.63 C759.06 297.39, 832.4 211.05, 918.92 112.45 M684.05 382.63 C774.26 276.78, 864.54 171.29, 918.92 112.45 M689.69 382.24 C755.88 305.74, 823.05 227.92, 919.31 118.09 M689.69 382.24 C762.05 298.48, 835.59 215.09, 919.31 118.09 M694.68 382.6 C769.11 297.91, 840.3 217.51, 919.05 124.49 M694.68 382.6 C751.93 315.64, 810.51 248.36, 919.05 124.49 M700.32 382.2 C763.28 307.35, 829.78 233.58, 918.79 130.88 M700.32 382.2 C778.74 293.23, 856.91 201.92, 918.79 130.88 M705.31 382.56 C771.61 307.11, 837.76 231.53, 919.18 136.53 M705.31 382.56 C750.58 331.34, 795.31 280.17, 919.18 136.53 M710.95 382.17 C788.25 291.86, 867.41 200.89, 918.92 142.92 M710.95 382.17 C764.26 322.54, 815.96 262.94, 918.92 142.92 M715.94 382.53 C787.56 303.17, 855.4 220.47, 919.32 148.57 M715.94 382.53 C766.01 325.77, 815.35 268.77, 919.32 148.57 M721.58 382.13 C794.66 296.84, 869.07 213.44, 919.05 154.97 M721.58 382.13 C782.62 310, 845.69 237.45, 919.05 154.97 M726.57 382.49 C774.49 327.98, 821.6 274.28, 918.79 161.36 M726.57 382.49 C765.17 337.53, 803.3 292.69, 918.79 161.36 M732.21 382.1 C787.08 318.24, 843.86 254.85, 919.19 167.01 M732.21 382.1 C785.22 319.91, 838.68 259.35, 919.19 167.01 M737.2 382.46 C784.13 326.54, 831.14 271.72, 918.93 173.4 M737.2 382.46 C783 328.29, 830.87 273.81, 918.93 173.4 M742.84 382.06 C785.96 331.18, 829.16 281.58, 919.32 179.05 M742.84 382.06 C805.17 311.13, 867.84 237.85, 919.32 179.05 M747.83 382.42 C813.61 310.28, 877.61 236.09, 919.06 185.45 M747.83 382.42 C787.01 338.61, 825.67 294.07, 919.06 185.45 M753.47 382.03 C805.94 320.53, 863.23 257.69, 918.8 191.84 M753.47 382.03 C806 318.66, 860.24 257.05, 918.8 191.84 M758.46 382.39 C790.76 343.97, 825.85 303.35, 919.19 197.49 M758.46 382.39 C798.49 335.7, 838.43 291.12, 919.19 197.49 M764.1 382 C813.87 323.45, 863.39 267.65, 918.93 203.88 M764.1 382 C806.9 333.97, 848.92 284.92, 918.93 203.88 M769.09 382.36 C823.27 321, 874.73 260.14, 919.33 209.53 M769.09 382.36 C814.43 329.89, 859.63 276.56, 919.33 209.53 M774.08 382.72 C803.61 345.98, 833.45 312.73, 919.06 215.92 M774.08 382.72 C812.63 338.47, 849.45 296.22, 919.06 215.92 M779.72 382.32 C835.37 317.13, 888.87 256.91, 918.8 222.32 M779.72 382.32 C826.69 331.05, 870.71 278.24, 918.8 222.32 M784.71 382.68 C813.56 346.88, 845.81 310.49, 919.2 227.97 M784.71 382.68 C815.13 349.03, 846 314.25, 919.2 227.97 M790.35 382.29 C826.94 339.69, 864.22 300.95, 918.94 234.36 M790.35 382.29 C822.83 343.23, 855.65 305.37, 918.94 234.36 M795.34 382.65 C827.01 344.06, 860.37 303.9, 919.33 240.01 M795.34 382.65 C834.93 339.37, 872.93 293.22, 919.33 240.01 M800.98 382.25 C845.12 326.28, 894.12 273.57, 919.07 246.4 M800.98 382.25 C846.1 329.44, 892.76 277.87, 919.07 246.4 M805.97 382.61 C834.53 351.27, 861.17 316.44, 918.81 252.8 M805.97 382.61 C843.08 338.58, 882.18 293.64, 918.81 252.8 M811.61 382.22 C842.32 350.55, 869.24 317.39, 919.2 258.45 M811.61 382.22 C838.82 352.9, 864.23 322.27, 919.2 258.45 M816.6 382.58 C846.38 347.7, 879.51 310.26, 918.94 264.84 M816.6 382.58 C849.98 343.44, 882.38 306.57, 918.94 264.84 M822.24 382.18 C846.23 353.61, 870.22 324.38, 919.34 270.49 M822.24 382.18 C852.84 348.38, 882.22 315.88, 919.34 270.49 M827.23 382.54 C849.95 358.02, 874.2 331.74, 919.07 276.88 M827.23 382.54 C859.42 345.25, 891.86 308.17, 919.07 276.88 M832.87 382.15 C852.81 358.75, 875.67 331.31, 918.81 283.28 M832.87 382.15 C853.61 358.09, 874.23 334.61, 918.81 283.28 M837.86 382.51 C859.18 356.36, 883.02 326.36, 919.21 288.92 M837.86 382.51 C861.99 355.65, 886.12 327.7, 919.21 288.92 M843.5 382.11 C858.25 365.01, 877.07 344.85, 918.95 295.32 M843.5 382.11 C866.69 354.25, 889.27 328.86, 918.95 295.32 M848.49 382.47 C873.45 354.67, 895.42 327.85, 919.34 300.97 M848.49 382.47 C873.22 355.79, 896.46 329.31, 919.34 300.97 M854.13 382.08 C869.58 366.93, 880.81 349.5, 919.08 307.36 M854.13 382.08 C878.59 354.92, 902.68 326.62, 919.08 307.36 M859.12 382.44 C876.81 363.08, 889.98 347.06, 918.82 313.76 M859.12 382.44 C870.37 368.91, 883.37 354.57, 918.82 313.76 M864.76 382.05 C885.63 359.47, 905.04 338.36, 919.21 319.4 M864.76 382.05 C877.27 367.3, 890.88 353.04, 919.21 319.4 M869.75 382.41 C880.57 366.57, 893.26 354.08, 918.95 325.8 M869.75 382.41 C886.62 363.44, 903.72 343.03, 918.95 325.8 M875.39 382.01 C889.85 365.09, 904.28 348.05, 919.35 331.45 M875.39 382.01 C890.52 364.68, 905.75 348.36, 919.35 331.45 M880.38 382.37 C890.19 372.81, 898.78 359.3, 919.08 337.84 M880.38 382.37 C894.56 365.87, 910.77 348.89, 919.08 337.84 M886.02 381.98 C897.88 366.6, 913.77 353.68, 918.82 344.24 M886.02 381.98 C894.49 372.95, 903.38 362.71, 918.82 344.24 M889.04 384.6 C900.12 371.69, 910.68 360.98, 918.56 350.64 M889.04 384.6 C896.27 377.51, 903.2 369.6, 918.56 350.64 M895.34 383.45 C899.73 378.55, 905.4 371.89, 917.64 357.79 M895.34 383.45 C900.44 377.19, 905.27 372.13, 917.64 357.79 M905.57 377.77 C910.77 372.98, 914.05 367.99, 916.73 364.94 M905.57 377.77 C909.14 373.4, 913.11 368.65, 916.73 364.94" stroke="#868e96" stroke-width="0.5" fill="none"></path><path d="M32 0 M32 0 C244.32 -0.01, 457.52 -0.85, 886 0 M32 0 C354.26 2.62, 677.69 2.56, 886 0 M886 0 C905.74 1.82, 918.19 12.43, 918 32 M886 0 C907.24 -0.55, 919.08 12.88, 918 32 M918 32 C918.86 152.67, 920.19 274.5, 918 350 M918 32 C917.65 152.96, 917.12 273.49, 918 350 M918 350 C917.18 372.48, 908.38 383.13, 886 382 M918 350 C917.29 371.15, 906.31 380.69, 886 382 M886 382 C586.94 378.32, 286.42 379.27, 32 382 M886 382 C584.02 383.19, 281.75 383.63, 32 382 M32 382 C9.66 380.04, -1.41 369.36, 0 350 M32 382 C12.33 382.19, 1.17 372.28, 0 350 M0 350 C0.27 231.15, -0.52 112.09, 0 32 M0 350 C-0.87 277.61, -0.37 206.28, 0 32 M0 32 C0.1 10.5, 12.41 0.7, 32 0 M0 32 C0.03 11.03, 12.84 -0.08, 32 0" stroke="#c92a2a" stroke-width="1" fill="none"></path></g><g transform="translate(464.2040041552309 1196.5030902719404) rotate(0 209.64999389648438 22.5)"><text x="209.64999389648438" y="0" font-family="Virgil, Segoe UI Emoji" font-size="36px" fill="#c92a2a" text-anchor="middle" style="white-space: pre;" direction="ltr" dominant-baseline="text-before-edge">KubeArmor Relay Server</text></g><g stroke-linecap="round" transform="translate(273.16646970256716 198.65476145590355) rotate(0 164.04443103013682 147.49608930341242)"><path d="M32 0 M32 0 C104.15 -2.76, 178.1 -3.44, 296.09 0 M32 0 C89.2 -0.79, 147.54 -0.61, 296.09 0 M296.09 0 C319.22 -0.14, 329.87 8.87, 328.09 32 M296.09 0 C319.25 0.69, 326.74 8.96, 328.09 32 M328.09 32 C328.9 122.12, 330.81 215.12, 328.09 262.99 M328.09 32 C325.73 89.44, 326.02 145.99, 328.09 262.99 M328.09 262.99 C328.93 282.41, 317.68 296.07, 296.09 294.99 M328.09 262.99 C327.74 286.35, 319.01 294.31, 296.09 294.99 M296.09 294.99 C223.76 295.41, 151.47 296.24, 32 294.99 M296.09 294.99 C201.01 295.56, 106.31 295.97, 32 294.99 M32 294.99 C9.31 293.71, -1.66 282.95, 0 262.99 M32 294.99 C12.37 293.62, 0.69 284.97, 0 262.99 M0 262.99 C0.31 176.94, -1.21 88.55, 0 32 M0 262.99 C-0.76 171.1, -0.67 79.95, 0 32 M0 32 C1.09 9.76, 11.98 -1.84, 32 0 M0 32 C-1.33 12.68, 8.71 -0.61, 32 0" stroke="#a61e4d" stroke-width="1" fill="none"></path></g><g stroke-linecap="round" transform="translate(333.3006978574913 375.56034661593776) rotate(0 99.88397218953514 45.66124442950195)"><path d="M5.42 6.04 C5.42 6.04, 5.42 6.04, 5.42 6.04 M5.42 6.04 C5.42 6.04, 5.42 6.04, 5.42 6.04 M0.57 17.72 C7.14 9.28, 8.08 9.49, 13.69 2.62 M0.57 17.72 C4.59 13.12, 12.24 5.07, 13.69 2.62 M0.31 24.12 C5.23 18.71, 5.6 16.72, 19.99 1.47 M0.31 24.12 C3.97 21.04, 9.67 14.06, 19.99 1.47 M0.7 29.76 C8.75 23, 16.47 17.41, 24.97 1.83 M0.7 29.76 C8.91 20.01, 17.77 11.03, 24.97 1.83 M0.44 36.16 C4.97 31.72, 12.18 22.08, 29.96 2.19 M0.44 36.16 C8.58 26.29, 19.89 13.36, 29.96 2.19 M0.83 41.8 C6.15 32.78, 15.03 24.38, 35.6 1.8 M0.83 41.8 C14.48 25.59, 24.77 14.51, 35.6 1.8 M0.57 48.2 C8.44 42.3, 19.93 26, 40.59 2.16 M0.57 48.2 C9.15 39.63, 16.21 30.31, 40.59 2.16 M0.31 54.6 C13.57 35.16, 25.71 20.22, 46.23 1.77 M0.31 54.6 C16.11 37.24, 27.32 23.08, 46.23 1.77 M0.71 60.24 C14.68 38.3, 30.89 22.48, 51.22 2.13 M0.71 60.24 C12.97 45.66, 22.01 34.69, 51.22 2.13 M0.44 66.64 C10.91 50.05, 33.12 32, 56.86 1.73 M0.44 66.64 C22.1 42.39, 44.04 19.67, 56.86 1.73 M0.84 72.28 C18.2 56.49, 32.79 34.82, 61.85 2.09 M0.84 72.28 C13.23 54.16, 28.16 38, 61.85 2.09 M3.2 75.66 C30.59 44, 53.77 17.93, 67.49 1.7 M3.2 75.66 C17.7 57.4, 32.63 41.9, 67.49 1.7 M4.25 80.55 C32.4 47.74, 55.95 20.02, 72.48 2.06 M4.25 80.55 C20.93 58.55, 40.27 38.33, 72.48 2.06 M5.96 84.68 C34.32 52.42, 58.27 24.96, 78.12 1.66 M5.96 84.68 C25.32 63.7, 40.98 45.25, 78.12 1.66 M8.98 87.3 C37.12 59.82, 57.68 30.51, 83.11 2.02 M8.98 87.3 C34.74 56.44, 62.99 21.49, 83.11 2.02 M11.34 90.68 C37.84 63.87, 60.99 28.2, 88.75 1.63 M11.34 90.68 C38.07 62.93, 61.31 32.36, 88.75 1.63 M15.67 91.8 C28.86 76.07, 49.31 59.38, 93.74 1.99 M15.67 91.8 C40.17 62.12, 64.34 36.92, 93.74 1.99 M20.66 92.16 C38.88 74.48, 54.51 55.85, 99.39 1.59 M20.66 92.16 C54.07 58.07, 82.64 22.82, 99.39 1.59 M24.99 93.27 C36.47 77.77, 54.98 52.47, 104.37 1.95 M24.99 93.27 C51.24 61.4, 77.71 31.25, 104.37 1.95 M30.63 92.88 C58.7 65.22, 88.54 34.36, 110.02 1.56 M30.63 92.88 C59.68 65.23, 83.01 33.7, 110.02 1.56 M35.62 93.24 C62.38 62.34, 89.83 36.54, 115 1.92 M35.62 93.24 C49.89 73.64, 66.54 52.17, 115 1.92 M40.61 93.6 C54.37 74.58, 76.9 44.9, 120.65 1.52 M40.61 93.6 C62.57 69.95, 84.4 45.46, 120.65 1.52 M46.25 93.2 C71.67 64.9, 99.67 30.46, 125.63 1.88 M46.25 93.2 C76.84 59.6, 107.8 21.82, 125.63 1.88 M51.24 93.56 C69.55 66.67, 91.44 45.34, 131.28 1.49 M51.24 93.56 C70.88 69.7, 92.66 48.32, 131.28 1.49 M56.88 93.17 C80.2 65.53, 97.19 43.54, 136.26 1.85 M56.88 93.17 C86.82 58.16, 116.13 23.65, 136.26 1.85 M61.87 93.53 C94.07 59.14, 119.06 26.87, 141.25 2.21 M61.87 93.53 C79.77 74.23, 96.4 50.36, 141.25 2.21 M67.51 93.14 C93.88 68.8, 109.48 42.72, 146.89 1.82 M67.51 93.14 C88.06 71.48, 106.84 47.34, 146.89 1.82 M72.5 93.5 C96.87 67.02, 118.77 35.31, 151.88 2.18 M72.5 93.5 C88.15 74.39, 103.71 55.84, 151.88 2.18 M78.14 93.1 C90.11 75.37, 111.89 59.02, 157.52 1.78 M78.14 93.1 C101.47 68.82, 127.27 38.82, 157.52 1.78 M83.13 93.46 C100.26 75.4, 118.68 58.04, 162.51 2.14 M83.13 93.46 C109.89 62.22, 140.58 30.22, 162.51 2.14 M88.77 93.07 C103.18 72.96, 128.89 49.41, 168.15 1.75 M88.77 93.07 C119.12 60.54, 147.71 27.36, 168.15 1.75 M93.76 93.43 C113.95 62.39, 142.97 42.7, 173.14 2.11 M93.76 93.43 C115.53 73.72, 133.64 48.96, 173.14 2.11 M99.4 93.03 C114.85 71.06, 133.17 52.57, 178.78 1.71 M99.4 93.03 C128.52 58.33, 157.33 26.99, 178.78 1.71 M104.39 93.39 C129.21 64.78, 149.93 39.8, 183.11 2.83 M104.39 93.39 C118.22 73.38, 135.1 56.8, 183.11 2.83 M110.03 93 C136.07 55.78, 174.08 23.62, 187.44 3.94 M110.03 93 C132.37 66.41, 159.37 40.42, 187.44 3.94 M115.02 93.36 C132.08 73.06, 149.34 58.25, 192.43 4.3 M115.02 93.36 C130.57 69.85, 148.36 50.55, 192.43 4.3 M120.66 92.96 C145.72 61.25, 175.21 34.25, 195.45 6.93 M120.66 92.96 C142.06 67.49, 162.3 46.96, 195.45 6.93 M125.65 93.32 C141.88 73.14, 159.5 60.95, 197.81 10.3 M125.65 93.32 C143.99 71.4, 158.47 53.16, 197.81 10.3 M131.29 92.93 C154.49 59.43, 185.93 33.12, 199.52 14.44 M131.29 92.93 C149.96 68.5, 169.47 49.77, 199.52 14.44 M136.28 93.29 C159.67 64.37, 181.05 41.87, 201.23 18.57 M136.28 93.29 C151.13 77.2, 164.76 60.07, 201.23 18.57 M141.92 92.89 C153.61 72.12, 177.03 57.89, 200.97 24.97 M141.92 92.89 C155.87 76.84, 166.29 62.68, 200.97 24.97 M146.91 93.25 C162.33 71.52, 185.7 51.11, 201.36 30.61 M146.91 93.25 C162.07 76.97, 177.09 59.44, 201.36 30.61 M152.55 92.86 C166.47 78.1, 185.16 57.66, 201.1 37.01 M152.55 92.86 C165.32 80.34, 178.34 66.71, 201.1 37.01 M157.54 93.22 C168.01 79.15, 180.98 69.21, 200.84 43.41 M157.54 93.22 C174.49 76.31, 185.59 59.71, 200.84 43.41 M162.52 93.58 C178.22 81.11, 191.41 59.6, 201.23 49.05 M162.52 93.58 C173.8 81.16, 186.03 67.24, 201.23 49.05 M168.17 93.18 C175.85 80.82, 185.78 78.38, 200.97 55.45 M168.17 93.18 C179.29 82.08, 186.73 69.89, 200.97 55.45 M173.15 93.55 C176.84 83.97, 192.55 76.39, 201.36 61.09 M173.15 93.55 C180.34 85.9, 188.13 78.23, 201.36 61.09 M178.8 93.15 C190.77 87.18, 194.39 70.47, 199.79 69 M178.8 93.15 C185.25 83.35, 193.71 76.75, 199.79 69 M185.75 91.25 C193.37 87.92, 192.42 81.73, 198.22 76.91 M185.75 91.25 C189.69 87.38, 191.3 85.38, 198.22 76.91" stroke="#868e96" stroke-width="0.5" fill="none"></path><path d="M22.83 0 M22.83 0 C63.56 -0.23, 106 -0.46, 176.94 0 M22.83 0 C76.95 1.84, 132.82 -1.65, 176.94 0 M176.94 0 C188.79 1.45, 200.57 7.09, 199.77 22.83 M176.94 0 C193.15 -4.42, 199.12 4.22, 199.77 22.83 M199.77 22.83 C197.81 37.26, 198.61 53.18, 199.77 68.49 M199.77 22.83 C201.3 33.88, 200.04 45.25, 199.77 68.49 M199.77 68.49 C196.24 85.45, 192.24 92.73, 176.94 91.32 M199.77 68.49 C196.48 83.6, 196.12 89.43, 176.94 91.32 M176.94 91.32 C134.82 86.94, 91.36 88.8, 22.83 91.32 M176.94 91.32 C118.35 88.84, 56.38 89.36, 22.83 91.32 M22.83 91.32 C5.8 94.12, -0.67 81.98, 0 68.49 M22.83 91.32 C9.76 89.7, -1.99 80.24, 0 68.49 M0 68.49 C-3.59 52.66, 4.21 30.14, 0 22.83 M0 68.49 C0.37 52.19, 1.55 39.34, 0 22.83 M0 22.83 C1.69 4.77, 8.85 -1.45, 22.83 0 M0 22.83 C3.47 10.12, 11.83 -2.48, 22.83 0" stroke="#364fc7" stroke-width="1" fill="none"></path></g><g transform="translate(361.05133874819876 402.9746733166835) rotate(0 72.13333129882812 18.24691772875667)"><text x="72.13333129882812" y="0" font-family="Virgil, Segoe UI Emoji" font-size="29.19506836601085px" fill="#364fc7" text-anchor="middle" style="white-space: pre;" direction="ltr" dominant-baseline="text-before-edge">KubeArmor</text></g><g stroke-linecap="round" transform="translate(311.79506711056 225.1610747157515) rotate(0 122.00113746007537 47.801615262134646)"><path d="M3.26 9.46 C3.26 9.46, 3.26 9.46, 3.26 9.46 M3.26 9.46 C3.26 9.46, 3.26 9.46, 3.26 9.46 M0.37 18.87 C6.65 18.25, 4.27 10.57, 12.18 5.29 M0.37 18.87 C2.65 12.52, 7.51 9.52, 12.18 5.29 M0.77 24.52 C2.14 19.27, 12.99 12.55, 18.48 4.14 M0.77 24.52 C6.86 15.11, 14.28 9.27, 18.48 4.14 M0.5 30.91 C10.84 18.86, 17.56 9.9, 26.09 1.48 M0.5 30.91 C7.48 19.91, 15.32 10.44, 26.09 1.48 M0.9 36.56 C13.71 26.38, 25.99 8.36, 31.08 1.84 M0.9 36.56 C10.56 25.41, 24.38 9.5, 31.08 1.84 M0.64 42.95 C14.34 32.44, 20.8 20.32, 36.72 1.45 M0.64 42.95 C6.92 33.16, 14.93 24.57, 36.72 1.45 M0.38 49.35 C11.95 28.21, 32.37 12.7, 41.71 1.81 M0.38 49.35 C15.23 34.17, 26.88 16.68, 41.71 1.81 M0.77 55 C11.97 43.17, 24.47 35.39, 46.69 2.17 M0.77 55 C14.1 40.31, 28.31 24.82, 46.69 2.17 M0.51 61.39 C7.6 48.6, 23.62 39.92, 52.34 1.77 M0.51 61.39 C10.75 51.23, 20.5 35.38, 52.34 1.77 M0.9 67.04 C20.01 43.86, 34.05 26.95, 57.32 2.13 M0.9 67.04 C13.57 49.85, 29.7 34.28, 57.32 2.13 M0.64 73.43 C17.83 54.58, 39.06 25.16, 62.97 1.74 M0.64 73.43 C17.17 57.56, 30.14 42.82, 62.97 1.74 M1.69 78.32 C13.27 63.65, 31.22 45.99, 67.95 2.1 M1.69 78.32 C15.82 64.77, 27.7 48.89, 67.95 2.1 M3.4 82.46 C20.37 65.65, 42.16 40.29, 73.6 1.7 M3.4 82.46 C27.85 55.75, 48.65 29.25, 73.6 1.7 M5.11 86.59 C19.69 67.41, 34.95 50.28, 78.58 2.06 M5.11 86.59 C24.07 64.67, 40.18 47.38, 78.58 2.06 M6.81 90.72 C32.17 68.59, 50.6 38.39, 83.57 2.42 M6.81 90.72 C34.88 63.18, 61.18 31.71, 83.57 2.42 M10.49 92.59 C41.05 57.96, 70.97 27.64, 89.22 2.03 M10.49 92.59 C39.18 58.43, 70.22 22.86, 89.22 2.03 M14.16 94.46 C42.27 62.04, 68.97 29.4, 94.2 2.39 M14.16 94.46 C27.97 74.08, 45.21 56.97, 94.2 2.39 M19.15 94.82 C50.28 59.9, 71.12 33.73, 99.85 1.99 M19.15 94.82 C47.32 62.96, 75.71 26.88, 99.85 1.99 M24.79 94.43 C56.84 65.77, 85.89 29.68, 104.83 2.35 M24.79 94.43 C49.53 65.58, 72.59 38.74, 104.83 2.35 M29.78 94.79 C59.47 55.46, 86.16 26.83, 110.48 1.96 M29.78 94.79 C60.44 61.8, 87.61 28.51, 110.48 1.96 M35.42 94.39 C51.86 73.64, 77.59 43.52, 115.46 2.32 M35.42 94.39 C64.58 63.74, 94.59 27.16, 115.46 2.32 M40.41 94.75 C70.48 59.98, 101.94 25.71, 120.45 2.68 M40.41 94.75 C65.88 65.24, 88.6 34.76, 120.45 2.68 M45.4 95.11 C78.5 59.22, 103.33 26.39, 126.09 2.28 M45.4 95.11 C75.68 61.93, 106.65 25.67, 126.09 2.28 M51.04 94.72 C70.66 68.36, 90.38 43.93, 131.08 2.64 M51.04 94.72 C68.15 74.69, 86.03 55.16, 131.08 2.64 M56.03 95.08 C76.53 79.18, 86.59 58.84, 136.72 2.25 M56.03 95.08 C77.4 73.5, 94.86 52.44, 136.72 2.25 M61.67 94.68 C80.54 71.14, 104.36 46.23, 141.71 2.61 M61.67 94.68 C91.17 61.72, 121.47 31.12, 141.71 2.61 M66.66 95.04 C94.23 62.13, 124.8 31.72, 146.7 2.97 M66.66 95.04 C95.02 63.28, 124.41 30.67, 146.7 2.97 M71.64 95.4 C94.62 69.88, 123.67 36.07, 152.34 2.58 M71.64 95.4 C97.84 65.08, 127.37 31.78, 152.34 2.58 M77.29 95.01 C103.53 62.96, 127.37 29.81, 157.33 2.94 M77.29 95.01 C105.96 56.76, 140.03 21.27, 157.33 2.94 M82.27 95.37 C111.29 60.95, 139.83 27.86, 162.97 2.54 M82.27 95.37 C112.22 58.54, 144.31 18.09, 162.97 2.54 M87.92 94.98 C117.34 65.21, 140.89 35.08, 167.96 2.9 M87.92 94.98 C114.42 61.19, 144.4 28.36, 167.96 2.9 M92.9 95.34 C105.99 70.83, 122.47 56.94, 173.6 2.51 M92.9 95.34 C119.54 66.11, 149.94 31.33, 173.6 2.51 M98.55 94.94 C127.85 63.87, 151.88 34.62, 178.59 2.87 M98.55 94.94 C120.6 69.8, 143.84 45.18, 178.59 2.87 M103.53 95.3 C120.71 70.41, 148.19 41.77, 183.57 3.23 M103.53 95.3 C125.83 74.16, 142.07 48.31, 183.57 3.23 M108.52 95.66 C125.56 71.69, 145.8 48.51, 189.22 2.83 M108.52 95.66 C132.1 64.84, 159.77 33.13, 189.22 2.83 M114.16 95.27 C128.65 77.22, 153.44 49.89, 194.2 3.19 M114.16 95.27 C136.93 72.31, 154.31 47.84, 194.2 3.19 M119.15 95.63 C139.53 71.19, 162.77 48.14, 199.85 2.8 M119.15 95.63 C132.29 77.39, 148.15 57.89, 199.85 2.8 M124.79 95.23 C140.3 75.14, 160.18 54.2, 204.83 3.16 M124.79 95.23 C145.49 73, 161.96 52.51, 204.83 3.16 M129.78 95.59 C144.87 76.8, 165.76 56.67, 210.48 2.76 M129.78 95.59 C147.66 72.17, 164.53 53.84, 210.48 2.76 M135.42 95.2 C149.15 77.07, 165.92 58.3, 215.46 3.12 M135.42 95.2 C159.93 69, 183.8 37.91, 215.46 3.12 M140.41 95.56 C154.91 71.4, 180.42 52.4, 220.45 3.48 M140.41 95.56 C160.19 75.32, 178.7 52.16, 220.45 3.48 M145.4 95.92 C166.71 67.99, 194.97 42.66, 226.09 3.09 M145.4 95.92 C171.7 66.09, 197.39 32.62, 226.09 3.09 M151.04 95.52 C177.98 56.9, 212.34 25.92, 231.74 2.69 M151.04 95.52 C180.17 59.74, 213.17 22.83, 231.74 2.69 M156.03 95.88 C175.46 69.74, 194.12 53.9, 235.41 4.56 M156.03 95.88 C180.1 72.01, 198.53 47.71, 235.41 4.56 M161.67 95.49 C190.57 57.53, 225.47 26.68, 239.09 6.43 M161.67 95.49 C182.89 71.17, 208.59 41.84, 239.09 6.43 M166.66 95.85 C182.89 78.3, 200.16 58.89, 240.79 10.57 M166.66 95.85 C191.26 69.92, 217.5 38.55, 240.79 10.57 M172.3 95.45 C190.52 67.78, 216.2 44.41, 242.5 14.7 M172.3 95.45 C196.65 66.92, 219.83 43.03, 242.5 14.7 M177.29 95.81 C205.96 67.05, 226.38 35.01, 244.21 18.83 M177.29 95.81 C193.46 77.35, 208.99 62.29, 244.21 18.83 M182.28 96.17 C202.31 71.47, 222.81 48.6, 243.95 25.23 M182.28 96.17 C198.94 76.38, 216.58 56.43, 243.95 25.23 M187.92 95.78 C206.64 75.17, 221.43 57.3, 243.68 31.63 M187.92 95.78 C206.91 72.24, 230.88 46.09, 243.68 31.63 M192.91 96.14 C207.54 77.99, 227.41 60.04, 244.08 37.27 M192.91 96.14 C206.37 81.04, 219.96 68.78, 244.08 37.27 M198.55 95.75 C211.78 74.77, 231.41 60.71, 243.82 43.67 M198.55 95.75 C216.19 77.48, 229.04 58.92, 243.82 43.67 M203.54 96.11 C211.61 83.38, 228.05 75.59, 243.56 50.07 M203.54 96.11 C212.27 83.51, 223.51 73.57, 243.56 50.07 M209.18 95.71 C217.78 82.54, 225.83 76.64, 243.29 56.47 M209.18 95.71 C219.27 88.1, 225.72 76.46, 243.29 56.47 M214.17 96.07 C217.71 90.72, 227.53 84.33, 243.69 62.11 M214.17 96.07 C222.22 89.6, 229.31 79.65, 243.69 62.11 M219.15 96.43 C230.01 88.69, 235.23 78.91, 243.43 68.51 M219.15 96.43 C227.05 87.3, 229.76 82.44, 243.43 68.51 M222.83 98.3 C227.35 89.67, 237.39 83.19, 243.17 74.9 M222.83 98.3 C227.96 90.78, 235.26 82.47, 243.17 74.9 M229.78 96.4 C229.48 95.45, 235.23 86.11, 242.9 81.3 M229.78 96.4 C233.04 89.84, 237.71 84.1, 242.9 81.3" stroke="#868e96" stroke-width="0.5" fill="none"></path><path d="M23.9 0 M23.9 0 C74.56 -1.53, 120.17 -2.57, 220.1 0 M23.9 0 C75.5 -0.61, 129.5 -2.81, 220.1 0 M220.1 0 C234.14 1.57, 240.63 8.15, 244 23.9 M220.1 0 C237.32 -1.1, 244.82 11.94, 244 23.9 M244 23.9 C245.76 41.66, 241.5 53.9, 244 71.7 M244 23.9 C244.53 32.99, 246.08 42.28, 244 71.7 M244 71.7 C240.16 89.15, 236.87 94.89, 220.1 95.6 M244 71.7 C245.4 85.39, 238.45 91.22, 220.1 95.6 M220.1 95.6 C144.93 98.65, 67.86 100.31, 23.9 95.6 M220.1 95.6 C180.27 92.48, 136.69 93.07, 23.9 95.6 M23.9 95.6 C11.88 97.78, 0.22 85.76, 0 71.7 M23.9 95.6 C12.39 93.5, -1.41 85.65, 0 71.7 M0 71.7 C-3.48 60.8, 1.42 48.28, 0 23.9 M0 71.7 C-1.34 61.94, -1.64 47.96, 0 23.9 M0 23.9 C3.03 9.01, 9.7 3.64, 23.9 0 M0 23.9 C-0.26 9.46, 12.32 0.07, 23.9 0" stroke="#a61e4d" stroke-width="1" fill="none"></path></g><g transform="translate(345.3295373953424 254.79481149029698) rotate(0 88.46666717529297 18.167878487589405)"><text x="88.46666717529297" y="0" font-family="Virgil, Segoe UI Emoji" font-size="29.068605580142922px" fill="#a61e4d" text-anchor="middle" style="white-space: pre;" direction="ltr" dominant-baseline="text-before-edge">entrypoint.sh</text></g><g stroke-linecap="round"><g transform="translate(429.7193077465736 370.8082137553897) rotate(0 0.40339506691407223 -21.380168835331006)"><path d="M-0.59 0.13 C-0.22 -7, 0.8 -35.55, 1.08 -42.89 M1.3 -0.85 C1.71 -7.77, 0.77 -34.35, 0.7 -41.4" stroke="#364fc7" stroke-width="1" fill="none"></path></g><g transform="translate(429.7193077465736 370.8082137553897) rotate(0 0.40339506691407223 -21.380168835331006)"><path d="M8.68 -19.66 C6.77 -23.77, 3.52 -28.04, 1.29 -42.57 M9.27 -22.01 C6.11 -25.32, 5.62 -30.9, -0.25 -42.3" stroke="#364fc7" stroke-width="1" fill="none"></path></g><g transform="translate(429.7193077465736 370.8082137553897) rotate(0 0.40339506691407223 -21.380168835331006)"><path d="M-5.95 -19.33 C-4.88 -23.44, -5.14 -27.77, 1.29 -42.57 M-5.37 -21.68 C-5.23 -25.19, -2.42 -30.85, -0.25 -42.3" stroke="#364fc7" stroke-width="1" fill="none"></path></g></g><mask></mask><g transform="translate(494.949656931577 330.0392455147635) rotate(0 30.78333282470703 17.83642360527415)"><text x="0" y="0" font-family="Virgil, Segoe UI Emoji" font-size="28.53827776843865px" fill="#364fc7" text-anchor="start" style="white-space: pre;" direction="ltr" dominant-baseline="text-before-edge">exec</text></g><g transform="translate(397.95068079313296 152.6942336680372) rotate(0 46.68333435058594 17.83642360527415)"><text x="0" y="0" font-family="Virgil, Segoe UI Emoji" font-size="28.53827776843865px" fill="#a61e4d" text-anchor="start" style="white-space: pre;" direction="ltr" dominant-baseline="text-before-edge">Task 1</text></g><g stroke-linecap="round" transform="translate(670.6639100486764 194.03014537326044) rotate(0 162.6681832801005 146.25867356324807)"><path d="M32 0 M32 0 C134.22 -2.59, 234.29 -0.17, 293.34 0 M32 0 C133.47 1.61, 236.29 0.74, 293.34 0 M293.34 0 C312.78 -1.81, 324.16 10.9, 325.34 32 M293.34 0 C314.1 -1.84, 326.3 8.47, 325.34 32 M325.34 32 C327.89 104.63, 325.88 174.49, 325.34 260.52 M325.34 32 C325.58 82.6, 326.02 132.88, 325.34 260.52 M325.34 260.52 C324.26 282.25, 313.87 292.88, 293.34 292.52 M325.34 260.52 C324.59 283.47, 313.11 291.05, 293.34 292.52 M293.34 292.52 C235.69 294.53, 180.39 295.25, 32 292.52 M293.34 292.52 C201.39 294.08, 108.34 294.94, 32 292.52 M32 292.52 C11.47 291.71, 0.06 281.64, 0 260.52 M32 292.52 C11 294.06, 1.25 280.81, 0 260.52 M0 260.52 C3.29 175.46, 1.34 92.28, 0 32 M0 260.52 C-2.33 196.66, -2.41 134.59, 0 32 M0 32 C-0.19 11.39, 9.53 0.62, 32 0 M0 32 C0.49 11.87, 8.58 -0.54, 32 0" stroke="#a61e4d" stroke-width="1" fill="none"></path></g><g stroke-linecap="round" transform="translate(730.7981382036005 371.93573053329465) rotate(0 99.88397218953514 45.66124442950195)"><path d="M5.42 6.04 C5.42 6.04, 5.42 6.04, 5.42 6.04 M5.42 6.04 C5.42 6.04, 5.42 6.04, 5.42 6.04 M0.57 17.72 C0.49 15.82, 3.03 11.01, 13.69 2.62 M0.57 17.72 C6.64 11.56, 9.4 5.2, 13.69 2.62 M0.31 24.12 C8.11 20.21, 14.45 8.2, 19.99 1.47 M0.31 24.12 C6.14 18.2, 11.72 8.27, 19.99 1.47 M0.7 29.76 C3.96 24.54, 12.73 20.27, 24.97 1.83 M0.7 29.76 C10.14 19.31, 16.54 11.62, 24.97 1.83 M0.44 36.16 C10.33 25.16, 23.49 15.19, 29.96 2.19 M0.44 36.16 C6.36 29.8, 13.33 18.86, 29.96 2.19 M0.83 41.8 C11.3 28.69, 13.73 18.68, 35.6 1.8 M0.83 41.8 C10.54 29.77, 22.88 17.81, 35.6 1.8 M0.57 48.2 C5.62 37.94, 17.82 28.95, 40.59 2.16 M0.57 48.2 C13.31 32.93, 29.46 14.89, 40.59 2.16 M0.31 54.6 C18.14 33.32, 31.76 14.41, 46.23 1.77 M0.31 54.6 C15.07 36.73, 30.56 20.97, 46.23 1.77 M0.71 60.24 C16.39 46.83, 27.68 30.31, 51.22 2.13 M0.71 60.24 C16.19 44.58, 27.75 28.03, 51.22 2.13 M0.44 66.64 C19.58 42.62, 31.97 29.9, 56.86 1.73 M0.44 66.64 C14.97 49.79, 32.63 33.2, 56.86 1.73 M0.84 72.28 C21.2 49.43, 37.1 29.34, 61.85 2.09 M0.84 72.28 C19.71 51.89, 37.71 33.72, 61.85 2.09 M3.2 75.66 C21.25 54.8, 40.62 34.96, 67.49 1.7 M3.2 75.66 C27.89 49.35, 53.32 20.92, 67.49 1.7 M4.25 80.55 C20.45 62.39, 34.28 43.52, 72.48 2.06 M4.25 80.55 C16.48 65.95, 32.81 46.95, 72.48 2.06 M5.96 84.68 C23.32 60.95, 45.51 43.91, 78.12 1.66 M5.96 84.68 C26.48 58.68, 48.22 38.95, 78.12 1.66 M8.98 87.3 C30.62 56.81, 54.74 31.59, 83.11 2.02 M8.98 87.3 C32.06 57.46, 55.85 29.09, 83.11 2.02 M11.34 90.68 C34.99 69.79, 54.69 43.75, 88.75 1.63 M11.34 90.68 C32.27 68.86, 51.11 42.47, 88.75 1.63 M15.67 91.8 C36 68.74, 62.21 38.83, 93.74 1.99 M15.67 91.8 C32.35 70.53, 51.75 48.6, 93.74 1.99 M20.66 92.16 C37.93 67.59, 59.32 54.38, 99.39 1.59 M20.66 92.16 C46.32 63.03, 73.39 31.26, 99.39 1.59 M24.99 93.27 C51.58 68.6, 71.81 35.86, 104.37 1.95 M24.99 93.27 C41.06 70.52, 61.28 49.69, 104.37 1.95 M30.63 92.88 C50.82 74.78, 64.37 54.61, 110.02 1.56 M30.63 92.88 C57.49 59.78, 85.95 30.18, 110.02 1.56 M35.62 93.24 C61.85 58.99, 86.44 33.31, 115 1.92 M35.62 93.24 C58 68.24, 79.66 42.93, 115 1.92 M40.61 93.6 C56.62 72.85, 79.14 50.59, 120.65 1.52 M40.61 93.6 C63.92 64.78, 87.39 39.73, 120.65 1.52 M46.25 93.2 C70.43 66.34, 96.41 33.27, 125.63 1.88 M46.25 93.2 C66.46 73.14, 84.71 51.74, 125.63 1.88 M51.24 93.56 C70.71 68.17, 97.4 46.88, 131.28 1.49 M51.24 93.56 C67.87 73.46, 87.58 53.94, 131.28 1.49 M56.88 93.17 C75.73 69.23, 94.97 45.82, 136.26 1.85 M56.88 93.17 C78.41 63.96, 101.9 38.37, 136.26 1.85 M61.87 93.53 C84.46 62.52, 113.53 29.21, 141.25 2.21 M61.87 93.53 C85.79 63.79, 110.38 36.44, 141.25 2.21 M67.51 93.14 C93.89 57.9, 117.46 33.87, 146.89 1.82 M67.51 93.14 C88.46 68.48, 111.06 42.09, 146.89 1.82 M72.5 93.5 C105.22 63.92, 130.89 28.33, 151.88 2.18 M72.5 93.5 C91.02 72.24, 104.45 51.46, 151.88 2.18 M78.14 93.1 C104.5 66.7, 131.44 32.41, 157.52 1.78 M78.14 93.1 C111.28 58.51, 139.35 23.37, 157.52 1.78 M83.13 93.46 C106.68 71.03, 127.11 49.76, 162.51 2.14 M83.13 93.46 C103.96 69.58, 124.19 42.57, 162.51 2.14 M88.77 93.07 C125.1 61.04, 150.65 18.36, 168.15 1.75 M88.77 93.07 C105.66 70.01, 121.94 53.05, 168.15 1.75 M93.76 93.43 C120.3 64.55, 153.99 27.76, 173.14 2.11 M93.76 93.43 C119.93 64.99, 146.9 33.92, 173.14 2.11 M99.4 93.03 C128.03 60.07, 152.37 26.37, 178.78 1.71 M99.4 93.03 C128.01 62.53, 158.5 31.97, 178.78 1.71 M104.39 93.39 C128.05 73.99, 142.71 50.03, 183.11 2.83 M104.39 93.39 C134.51 63.76, 157.33 33.37, 183.11 2.83 M110.03 93 C130.53 74.29, 142.71 56.12, 187.44 3.94 M110.03 93 C139.72 59.65, 172.98 24.6, 187.44 3.94 M115.02 93.36 C134.47 76.05, 151.14 53.69, 192.43 4.3 M115.02 93.36 C139.12 68.17, 159.81 40.94, 192.43 4.3 M120.66 92.96 C137.79 80.2, 148.97 61.42, 195.45 6.93 M120.66 92.96 C138.45 70.76, 162.76 44.4, 195.45 6.93 M125.65 93.32 C152.63 67.37, 173.06 41.36, 197.81 10.3 M125.65 93.32 C153.37 64.69, 180.68 30.1, 197.81 10.3 M131.29 92.93 C151.07 69.8, 168.87 47.94, 199.52 14.44 M131.29 92.93 C146.3 74.29, 162.82 57.38, 199.52 14.44 M136.28 93.29 C158.16 76.58, 168.72 53.51, 201.23 18.57 M136.28 93.29 C157.84 66.28, 181.94 41.37, 201.23 18.57 M141.92 92.89 C164.34 71.22, 180.18 47.98, 200.97 24.97 M141.92 92.89 C164.98 66.78, 185.66 43.36, 200.97 24.97 M146.91 93.25 C162.03 78.09, 171.11 58.58, 201.36 30.61 M146.91 93.25 C167.31 71.81, 184.59 49.23, 201.36 30.61 M152.55 92.86 C171.88 74.89, 185.42 53.3, 201.1 37.01 M152.55 92.86 C164.68 75.75, 181.75 60.23, 201.1 37.01 M157.54 93.22 C166.75 80.21, 175.03 66.75, 200.84 43.41 M157.54 93.22 C176.15 72.1, 189.92 56.51, 200.84 43.41 M162.52 93.58 C177.47 83.34, 188.37 67.98, 201.23 49.05 M162.52 93.58 C173.06 79.25, 185.83 67.13, 201.23 49.05 M168.17 93.18 C185.51 80.36, 192.91 61.25, 200.97 55.45 M168.17 93.18 C180.25 80.94, 192.49 65.87, 200.97 55.45 M173.15 93.55 C182.48 76.91, 196.15 68.5, 201.36 61.09 M173.15 93.55 C179.5 87.47, 186.72 79.14, 201.36 61.09 M178.8 93.15 C183.9 84.72, 191.58 75.42, 199.79 69 M178.8 93.15 C182.66 88.93, 187.39 82.66, 199.79 69 M185.75 91.25 C189.99 86.64, 195.44 81.11, 198.22 76.91 M185.75 91.25 C191.28 85.15, 191.63 83.09, 198.22 76.91" stroke="#868e96" stroke-width="0.5" fill="none"></path><path d="M22.83 0 M22.83 0 C68.3 -1.23, 118.49 -0.03, 176.94 0 M22.83 0 C70.85 0.96, 119.62 0.78, 176.94 0 M176.94 0 C195.45 3.11, 201.34 6.01, 199.77 22.83 M176.94 0 C191.06 -2.93, 195.71 9.6, 199.77 22.83 M199.77 22.83 C199.99 40.06, 198.44 49.18, 199.77 68.49 M199.77 22.83 C197.82 30.87, 198.75 43.16, 199.77 68.49 M199.77 68.49 C202.68 82.36, 194.06 88.44, 176.94 91.32 M199.77 68.49 C196.35 81.6, 190.08 94.53, 176.94 91.32 M176.94 91.32 C131.88 91.03, 86.61 96.25, 22.83 91.32 M176.94 91.32 C137.78 90.2, 95.28 88.76, 22.83 91.32 M22.83 91.32 C3.62 87.63, -1.08 80.72, 0 68.49 M22.83 91.32 C9.09 92.38, 1.95 80.44, 0 68.49 M0 68.49 C2.51 57.05, -1.83 39.09, 0 22.83 M0 68.49 C0.5 54.44, 0.08 39.1, 0 22.83 M0 22.83 C2.84 5.86, 11.28 -3.84, 22.83 0 M0 22.83 C-4.39 9.1, 11.19 3.85, 22.83 0" stroke="#364fc7" stroke-width="1" fill="none"></path></g><g transform="translate(758.5487790943071 399.3500572340404) rotate(0 72.13333129882812 18.24691772875667)"><text x="72.13333129882812" y="0" font-family="Virgil, Segoe UI Emoji" font-size="29.19506836601085px" fill="#364fc7" text-anchor="middle" style="white-space: pre;" direction="ltr" dominant-baseline="text-before-edge">KubeArmor</text></g><g stroke-linecap="round" transform="translate(709.292507456671 221.5364586331084) rotate(0 122.00113746007537 47.801615262134646)"><path d="M3.26 9.46 C3.26 9.46, 3.26 9.46, 3.26 9.46 M3.26 9.46 C3.26 9.46, 3.26 9.46, 3.26 9.46 M0.37 18.87 C6.6 13.66, 11.88 12.04, 12.18 5.29 M0.37 18.87 C3.67 15.81, 7.24 12.6, 12.18 5.29 M0.77 24.52 C7.98 15.46, 14.57 8.1, 18.48 4.14 M0.77 24.52 C5.94 15.82, 15.64 8.45, 18.48 4.14 M0.5 30.91 C10.89 18.77, 20.38 12.3, 26.09 1.48 M0.5 30.91 C9.18 21.09, 15.84 13.16, 26.09 1.48 M0.9 36.56 C8.12 27.95, 15.73 12.09, 31.08 1.84 M0.9 36.56 C11.99 22.77, 26.65 10.76, 31.08 1.84 M0.64 42.95 C10.07 33.72, 19.34 22.37, 36.72 1.45 M0.64 42.95 C10.58 28.38, 22.68 13.35, 36.72 1.45 M0.38 49.35 C14.18 39.81, 21.47 21.28, 41.71 1.81 M0.38 49.35 C17.57 30.74, 29.74 13.31, 41.71 1.81 M0.77 55 C14.77 44.84, 20.6 28.57, 46.69 2.17 M0.77 55 C11.98 38.1, 25.89 27.32, 46.69 2.17 M0.51 61.39 C14.56 44.3, 29.46 28.98, 52.34 1.77 M0.51 61.39 C17.51 44.23, 34.04 25.66, 52.34 1.77 M0.9 67.04 C11.81 50.21, 21.92 37.02, 57.32 2.13 M0.9 67.04 C15.67 50.87, 28.87 32.58, 57.32 2.13 M0.64 73.43 C19.33 54.39, 33.64 35.13, 62.97 1.74 M0.64 73.43 C15.21 55.63, 29.9 35.87, 62.97 1.74 M1.69 78.32 C26.97 50.88, 46.95 26.97, 67.95 2.1 M1.69 78.32 C25.94 48.68, 52.03 17.17, 67.95 2.1 M3.4 82.46 C21.68 60.67, 43.61 31.39, 73.6 1.7 M3.4 82.46 C27.64 55.61, 53.57 24.68, 73.6 1.7 M5.11 86.59 C21.25 62.69, 42.06 42.48, 78.58 2.06 M5.11 86.59 C19.93 68.94, 36.43 50.14, 78.58 2.06 M6.81 90.72 C24.98 73.36, 43.97 49.96, 83.57 2.42 M6.81 90.72 C30.07 63.82, 53.99 40.51, 83.57 2.42 M10.49 92.59 C40.33 57.7, 68.61 21.32, 89.22 2.03 M10.49 92.59 C38.76 62.34, 67.17 30.39, 89.22 2.03 M14.16 94.46 C38.4 64.84, 70.64 27.18, 94.2 2.39 M14.16 94.46 C44.83 55.97, 78.27 21.62, 94.2 2.39 M19.15 94.82 C37.44 74.47, 53.76 52.6, 99.85 1.99 M19.15 94.82 C47.17 62.27, 77.82 30.5, 99.85 1.99 M24.79 94.43 C51.86 64.19, 87.12 24.13, 104.83 2.35 M24.79 94.43 C45.29 68.9, 68.1 43.77, 104.83 2.35 M29.78 94.79 C62.82 56.61, 92.71 21.19, 110.48 1.96 M29.78 94.79 C53.85 65.3, 77.91 40.84, 110.48 1.96 M35.42 94.39 C51.33 76.82, 69.41 59.23, 115.46 2.32 M35.42 94.39 C57.99 64.19, 86.09 35.29, 115.46 2.32 M40.41 94.75 C61.83 66.19, 88.61 39.9, 120.45 2.68 M40.41 94.75 C60.82 70.66, 78.96 48.48, 120.45 2.68 M45.4 95.11 C71.16 61.19, 97.92 32.73, 126.09 2.28 M45.4 95.11 C71.09 66.66, 95.22 35.24, 126.09 2.28 M51.04 94.72 C67.25 70.89, 88.9 44.5, 131.08 2.64 M51.04 94.72 C70.73 71.29, 92.29 44.36, 131.08 2.64 M56.03 95.08 C81.11 67.54, 108.26 36.95, 136.72 2.25 M56.03 95.08 C73.83 78.59, 90.37 56.31, 136.72 2.25 M61.67 94.68 C90.12 65.36, 118.94 32.54, 141.71 2.61 M61.67 94.68 C84.86 69.32, 106.88 42.94, 141.71 2.61 M66.66 95.04 C84.07 74.52, 102.2 52.15, 146.7 2.97 M66.66 95.04 C101.12 56.22, 132.29 22.83, 146.7 2.97 M71.64 95.4 C100.18 57.62, 139.79 24.16, 152.34 2.58 M71.64 95.4 C96.38 70.16, 119.42 44.91, 152.34 2.58 M77.29 95.01 C110.44 56.79, 141.86 27.31, 157.33 2.94 M77.29 95.01 C108.59 55.69, 141.9 22.57, 157.33 2.94 M82.27 95.37 C105.85 68.34, 134.89 36.59, 162.97 2.54 M82.27 95.37 C115.4 58.8, 142.61 26.46, 162.97 2.54 M87.92 94.98 C115.58 64.53, 150.19 28.64, 167.96 2.9 M87.92 94.98 C106.44 74.05, 121.9 55.06, 167.96 2.9 M92.9 95.34 C125.15 58.09, 154.73 20.39, 173.6 2.51 M92.9 95.34 C125.34 60.34, 154.29 23.7, 173.6 2.51 M98.55 94.94 C126.53 63.2, 146.56 37.6, 178.59 2.87 M98.55 94.94 C121.16 62.27, 146.91 36.18, 178.59 2.87 M103.53 95.3 C130.42 63.22, 155.81 41.51, 183.57 3.23 M103.53 95.3 C133.86 60.69, 163.78 26.77, 183.57 3.23 M108.52 95.66 C139.8 61.56, 160.53 30.1, 189.22 2.83 M108.52 95.66 C133.34 62.86, 161.33 32.52, 189.22 2.83 M114.16 95.27 C145.49 63.31, 171.6 28.18, 194.2 3.19 M114.16 95.27 C141.11 63.12, 169.13 32.12, 194.2 3.19 M119.15 95.63 C151.45 60.81, 181.09 17.03, 199.85 2.8 M119.15 95.63 C145.36 63.77, 170.22 35.41, 199.85 2.8 M124.79 95.23 C151.59 68.1, 168.64 42.43, 204.83 3.16 M124.79 95.23 C153.72 62.7, 181.55 28.32, 204.83 3.16 M129.78 95.59 C150.52 70.66, 175.13 43.18, 210.48 2.76 M129.78 95.59 C153.13 65.35, 176.32 41.64, 210.48 2.76 M135.42 95.2 C168.42 64.95, 192.71 27.81, 215.46 3.12 M135.42 95.2 C153.71 72.41, 171.45 53.69, 215.46 3.12 M140.41 95.56 C169.25 68.42, 193.24 41.07, 220.45 3.48 M140.41 95.56 C161.02 68.25, 185.95 44.04, 220.45 3.48 M145.4 95.92 C174.05 67.81, 200.65 40.82, 226.09 3.09 M145.4 95.92 C178.59 58.97, 208.47 24.13, 226.09 3.09 M151.04 95.52 C174.5 72.95, 197.59 38.97, 231.74 2.69 M151.04 95.52 C168.94 72, 193.2 47.34, 231.74 2.69 M156.03 95.88 C181.4 72.95, 199.66 52.11, 235.41 4.56 M156.03 95.88 C174.41 75.26, 189.1 56.9, 235.41 4.56 M161.67 95.49 C193.07 62.06, 224.49 21.31, 239.09 6.43 M161.67 95.49 C186.36 66.26, 207.17 44.07, 239.09 6.43 M166.66 95.85 C195.78 65.96, 221.65 37.21, 240.79 10.57 M166.66 95.85 C192.72 68.66, 218.9 36.64, 240.79 10.57 M172.3 95.45 C182.26 76.99, 196.77 62.53, 242.5 14.7 M172.3 95.45 C195.98 71.03, 218.74 41.67, 242.5 14.7 M177.29 95.81 C196.12 73.41, 219.08 46.12, 244.21 18.83 M177.29 95.81 C201.67 68.02, 225.24 41.25, 244.21 18.83 M182.28 96.17 C199.79 75.76, 221.69 58.44, 243.95 25.23 M182.28 96.17 C197.31 80, 210.79 62.88, 243.95 25.23 M187.92 95.78 C205.27 78.88, 218.67 58.94, 243.68 31.63 M187.92 95.78 C204.05 80.57, 218.15 61, 243.68 31.63 M192.91 96.14 C209.52 80.86, 223.33 61.67, 244.08 37.27 M192.91 96.14 C206.5 77.12, 221.57 61.24, 244.08 37.27 M198.55 95.75 C212.62 87.49, 217.79 75.01, 243.82 43.67 M198.55 95.75 C208.75 85.68, 219.64 71.55, 243.82 43.67 M203.54 96.11 C214.72 83.97, 230.02 63.03, 243.56 50.07 M203.54 96.11 C209.66 86.56, 217.22 74.97, 243.56 50.07 M209.18 95.71 C220 86.48, 225.54 75.31, 243.29 56.47 M209.18 95.71 C219.42 83.9, 227 74.92, 243.29 56.47 M214.17 96.07 C223.55 85.61, 230.92 77.27, 243.69 62.11 M214.17 96.07 C219.2 88.58, 230.24 80.9, 243.69 62.11 M219.15 96.43 C224.12 92.89, 230.83 88.08, 243.43 68.51 M219.15 96.43 C226.06 87.73, 232.94 80.44, 243.43 68.51 M222.83 98.3 C230.5 86, 241.26 76.72, 243.17 74.9 M222.83 98.3 C227.6 90.04, 233.54 85.65, 243.17 74.9 M229.78 96.4 C236.5 91.28, 238.34 81.48, 242.9 81.3 M229.78 96.4 C235.51 90.17, 238.23 86.29, 242.9 81.3" stroke="#868e96" stroke-width="0.5" fill="none"></path><path d="M23.9 0 M23.9 0 C65.24 -0.39, 111.95 0.45, 220.1 0 M23.9 0 C102.93 -2.52, 179.21 -2.6, 220.1 0 M220.1 0 C239.67 0.85, 243.32 6.06, 244 23.9 M220.1 0 C238.81 -3.92, 239.59 9.71, 244 23.9 M244 23.9 C241.88 41.34, 240.02 58.38, 244 71.7 M244 23.9 C245.12 38.19, 245.95 47.95, 244 71.7 M244 71.7 C243.99 83.98, 238.51 96.52, 220.1 95.6 M244 71.7 C241.1 90.06, 240.53 98.11, 220.1 95.6 M220.1 95.6 C158.35 98.15, 98.53 98.35, 23.9 95.6 M220.1 95.6 C169.02 92.41, 117.13 90.49, 23.9 95.6 M23.9 95.6 C10.72 94.39, -1.36 90.21, 0 71.7 M23.9 95.6 C5.71 91.82, 3.48 88.84, 0 71.7 M0 71.7 C0.43 59.08, -0.81 35.81, 0 23.9 M0 71.7 C0.84 55.91, 1.4 42.81, 0 23.9 M0 23.9 C1.98 11.23, 7.12 3.62, 23.9 0 M0 23.9 C3.71 12.48, 11.37 -2.21, 23.9 0" stroke="#a61e4d" stroke-width="1" fill="none"></path></g><g transform="translate(742.8269777414525 251.17019540765386) rotate(0 88.46666717529297 18.167878487589405)"><text x="88.46666717529297" y="0" font-family="Virgil, Segoe UI Emoji" font-size="29.068605580142922px" fill="#a61e4d" text-anchor="middle" style="white-space: pre;" direction="ltr" dominant-baseline="text-before-edge">entrypoint.sh</text></g><g stroke-linecap="round"><g transform="translate(827.2167480926828 367.1835976727475) rotate(0 -0.06159503012895584 -21.11333116008109)"><path d="M1.01 -0.62 C0.91 -8.05, -0.85 -36.89, -1.14 -43.89 M0.09 1.67 C0.38 -5.71, 0.69 -35.77, 0.98 -42.93" stroke="#364fc7" stroke-width="1" fill="none"></path></g><g transform="translate(827.2167480926828 367.1835976727475) rotate(0 -0.06159503012895584 -21.11333116008109)"><path d="M6.79 -24.54 C4.14 -28.99, 4.42 -33.53, -0.62 -42.09 M7.68 -21.77 C7.1 -27.05, 4.76 -31.7, 1 -42.7" stroke="#364fc7" stroke-width="1" fill="none"></path></g><g transform="translate(827.2167480926828 367.1835976727475) rotate(0 -0.06159503012895584 -21.11333116008109)"><path d="M-7.84 -24.88 C-6.72 -29.37, -2.67 -33.82, -0.62 -42.09 M-6.96 -22.11 C-4.55 -27.4, -3.9 -31.98, 1 -42.7" stroke="#364fc7" stroke-width="1" fill="none"></path></g></g><mask></mask><g transform="translate(892.4470972776862 326.41462943212036) rotate(0 30.78333282470703 17.83642360527415)"><text x="0" y="0" font-family="Virgil, Segoe UI Emoji" font-size="28.53827776843865px" fill="#364fc7" text-anchor="start" style="white-space: pre;" direction="ltr" dominant-baseline="text-before-edge">exec</text></g><g transform="translate(778.4481211392422 149.0696175853941) rotate(0 52.96666717529297 17.83642360527415)"><text x="0" y="0" font-family="Virgil, Segoe UI Emoji" font-size="28.53827776843865px" fill="#a61e4d" text-anchor="start" style="white-space: pre;" direction="ltr" dominant-baseline="text-before-edge">Task 2</text></g><g transform="translate(1157.2361471399736 554.5111581280294) rotate(0 39.25 14.701140888446616)"><text x="0" y="0" font-family="Virgil, Segoe UI Emoji" font-size="23.521825421514517px" fill="#087f5b" text-anchor="start" style="white-space: pre;" direction="ltr" dominant-baseline="text-before-edge">awsvpc</text></g><g stroke-linecap="round" transform="translate(496.9189682078677 1714.1254369965177) rotate(0 166.94892494536634 79.19372080741732)"><path d="M7.86 8.16 C7.86 8.16, 7.86 8.16, 7.86 8.16 M7.86 8.16 C7.86 8.16, 7.86 8.16, 7.86 8.16 M2.35 20.59 C3.62 17.63, 10.55 15.49, 18.1 2.48 M2.35 20.59 C8.69 13.75, 12.08 9.52, 18.1 2.48 M2.75 26.24 C9.89 18.32, 20.37 11.44, 24.4 1.33 M2.75 26.24 C6.78 22.04, 11.75 13.41, 24.4 1.33 M2.48 32.64 C11.34 21.45, 12.2 13.25, 30.7 0.18 M2.48 32.64 C10.15 22.99, 20.45 13.37, 30.7 0.18 M2.88 38.28 C6.1 29.94, 16.51 23, 34.37 2.05 M2.88 38.28 C12.62 26.59, 25.61 12.19, 34.37 2.05 M2.62 44.68 C16.92 27.23, 27.07 12.33, 39.36 2.41 M2.62 44.68 C14.37 30.26, 26.71 18.12, 39.36 2.41 M2.36 51.07 C16.06 39.77, 25.54 25.33, 45 2.02 M2.36 51.07 C15.64 37.89, 25 23.87, 45 2.02 M2.75 56.72 C19.21 36, 28.78 26.52, 49.99 2.38 M2.75 56.72 C14.73 42.52, 29.97 28.71, 49.99 2.38 M2.49 63.11 C20.37 43.14, 33.67 26.04, 55.63 1.98 M2.49 63.11 C19.15 45.24, 34.84 29.72, 55.63 1.98 M2.88 68.76 C19.02 50.15, 36.38 32.61, 60.62 2.34 M2.88 68.76 C25.06 45.34, 48.02 19.74, 60.62 2.34 M2.62 75.16 C17.79 58.22, 30.5 40.64, 66.26 1.95 M2.62 75.16 C13.93 61.62, 29.3 43.75, 66.26 1.95 M2.36 81.55 C18.93 58.81, 40.26 42.75, 71.25 2.31 M2.36 81.55 C21.92 56.65, 42.73 37.98, 71.25 2.31 M2.76 87.2 C24.4 56.7, 48.52 31.48, 76.89 1.91 M2.76 87.2 C25.84 57.35, 49.62 28.98, 76.89 1.91 M2.49 93.59 C26.71 72.08, 46.93 45.43, 81.88 2.27 M2.49 93.59 C23.95 71.2, 43.32 44.18, 81.88 2.27 M2.89 99.24 C25.01 74.06, 53.02 42.09, 87.52 1.88 M2.89 99.24 C21.13 76.05, 42.15 52.25, 87.52 1.88 M2.63 105.64 C22.63 78.04, 46.53 61.96, 92.51 2.24 M2.63 105.64 C31.92 72.21, 62.72 36.15, 92.51 2.24 M2.37 112.03 C33.63 81.62, 58.64 43.4, 98.15 1.85 M2.37 112.03 C21.97 84.66, 46.03 59.42, 98.15 1.85 M2.76 117.68 C27.8 94.09, 46.29 68.25, 103.14 2.21 M2.76 117.68 C37.24 75.93, 73.02 37.91, 103.14 2.21 M2.5 124.07 C37.87 79.52, 71.01 44.02, 108.78 1.81 M2.5 124.07 C32.1 90.49, 61.13 56.71, 108.78 1.81 M2.89 129.72 C25.88 101.09, 54.95 71.28, 113.77 2.17 M2.89 129.72 C35.59 90.23, 67.95 54.96, 113.77 2.17 M2.63 136.11 C39.38 95.85, 77.3 49.03, 119.41 1.78 M2.63 136.11 C32.42 106.44, 59.54 74.85, 119.41 1.78 M4.34 140.25 C34.19 102.93, 71.9 68.97, 124.4 2.14 M4.34 140.25 C29.58 110.39, 58.18 80.65, 124.4 2.14 M4.73 145.89 C35.01 108.11, 66.55 70.54, 130.04 1.74 M4.73 145.89 C39.3 100.89, 76.03 60.08, 130.04 1.74 M7.75 148.52 C46.14 97.89, 91.85 45.43, 135.03 2.1 M7.75 148.52 C46.1 101.09, 85.6 56.59, 135.03 2.1 M10.12 151.89 C53.42 96.38, 94.39 52.34, 140.67 1.71 M10.12 151.89 C45.77 110.14, 82.98 66.93, 140.67 1.71 M13.13 154.52 C65.26 102.23, 110.32 44.96, 145.66 2.07 M13.13 154.52 C42.81 119.6, 67.83 86.04, 145.66 2.07 M17.47 155.63 C61.27 108.81, 105.24 55.26, 150.65 2.43 M17.47 155.63 C71.82 96.43, 120.69 37.68, 150.65 2.43 M21.8 156.75 C59.68 118.14, 93.69 81.01, 156.29 2.03 M21.8 156.75 C56.59 115.09, 91.94 71.11, 156.29 2.03 M26.13 157.86 C84.88 100.8, 133.2 33.38, 161.28 2.39 M26.13 157.86 C54.92 120.33, 83.79 88.69, 161.28 2.39 M31.11 158.22 C78.56 105.65, 131.75 46.21, 166.92 2 M31.11 158.22 C76.34 108.12, 122.14 55.38, 166.92 2 M34.13 160.85 C83.39 103.46, 129.74 45.1, 171.91 2.36 M34.13 160.85 C84.14 107.37, 134.64 53.25, 171.91 2.36 M39.78 160.45 C77.63 125.68, 106.52 86.17, 177.55 1.96 M39.78 160.45 C90.5 107.43, 133.66 54.12, 177.55 1.96 M44.76 160.81 C78.4 126.32, 105.4 91.58, 182.54 2.32 M44.76 160.81 C98.85 100.61, 155.43 38.37, 182.54 2.32 M50.41 160.42 C84.48 126.64, 115.56 88.07, 188.18 1.93 M50.41 160.42 C92.03 114.51, 131.78 65.74, 188.18 1.93 M55.39 160.78 C85 133.29, 109.62 99.74, 193.17 2.29 M55.39 160.78 C90.19 118.93, 131.78 72.5, 193.17 2.29 M61.04 160.38 C110.1 110.89, 152.14 60.3, 198.81 1.9 M61.04 160.38 C113.38 104.01, 165.34 41.44, 198.81 1.9 M66.02 160.74 C106.49 115.01, 145.22 69.22, 203.8 2.26 M66.02 160.74 C97.36 123.27, 130.21 87.34, 203.8 2.26 M71.67 160.35 C113.9 121.58, 144.71 76.48, 209.44 1.86 M71.67 160.35 C118.08 104.58, 167.85 49.81, 209.44 1.86 M76.65 160.71 C125.8 109.22, 167.97 56.29, 214.43 2.22 M76.65 160.71 C128.09 100.52, 178.14 43.27, 214.43 2.22 M82.3 160.32 C117.57 121.21, 147.03 79.32, 220.07 1.83 M82.3 160.32 C132.46 103.37, 179.65 46.7, 220.07 1.83 M87.28 160.68 C135.21 109.6, 178.43 54.56, 225.06 2.19 M87.28 160.68 C124.39 113.65, 167.6 67.57, 225.06 2.19 M92.93 160.28 C122.37 122.07, 151.61 84.95, 230.7 1.79 M92.93 160.28 C147.8 97.19, 198.44 39.16, 230.7 1.79 M97.91 160.64 C145.35 113.29, 189.36 60.16, 235.69 2.15 M97.91 160.64 C137.93 110.19, 181.68 62.12, 235.69 2.15 M103.56 160.25 C164.28 98.94, 214.1 32.27, 241.33 1.76 M103.56 160.25 C151.89 105.64, 200.26 49.12, 241.33 1.76 M108.54 160.61 C157.21 95.3, 211.77 39, 246.32 2.12 M108.54 160.61 C139.99 128.34, 170.99 92.66, 246.32 2.12 M114.19 160.21 C160.16 101.79, 210.41 43.57, 251.96 1.72 M114.19 160.21 C143.3 126.22, 174.27 89.87, 251.96 1.72 M119.17 160.57 C162.55 111.39, 206.62 61.38, 256.95 2.08 M119.17 160.57 C162.12 109.28, 200.34 63.77, 256.95 2.08 M124.82 160.18 C165.87 108.44, 210.73 58.8, 262.59 1.69 M124.82 160.18 C166.62 111.5, 210.21 61.96, 262.59 1.69 M129.8 160.54 C178.89 98.14, 230.73 35.27, 267.58 2.05 M129.8 160.54 C175.79 105.22, 225.88 50.12, 267.58 2.05 M135.45 160.14 C174.56 115.75, 209.8 74.89, 272.56 2.41 M135.45 160.14 C187.23 98.75, 238.04 38.28, 272.56 2.41 M140.43 160.5 C172.07 122.17, 207.46 78.59, 278.21 2.01 M140.43 160.5 C168.28 124.14, 200.69 91.99, 278.21 2.01 M145.42 160.86 C172.48 126.68, 204.09 93.11, 283.19 2.37 M145.42 160.86 C189.28 110.76, 234.58 61.16, 283.19 2.37 M151.06 160.47 C207.04 98.46, 263.28 36.97, 288.84 1.98 M151.06 160.47 C195.4 110.61, 239.16 59.76, 288.84 1.98 M156.05 160.83 C186.28 123.19, 209.05 93.95, 293.82 2.34 M156.05 160.83 C195.79 114.14, 233.19 68.48, 293.82 2.34 M161.69 160.43 C199.87 123.47, 231.77 80.82, 299.47 1.94 M161.69 160.43 C200.88 114.77, 239.22 69.57, 299.47 1.94 M166.68 160.79 C202 128.48, 236.46 90.22, 304.45 2.3 M166.68 160.79 C212.6 107.48, 261.23 52.78, 304.45 2.3 M172.32 160.4 C222.28 103.79, 268.65 53.01, 308.78 3.42 M172.32 160.4 C210.18 116.73, 248.18 72, 308.78 3.42 M177.31 160.76 C222.59 112.41, 272.62 55.57, 313.12 4.53 M177.31 160.76 C208.21 124.06, 244.56 83.64, 313.12 4.53 M182.95 160.36 C225.35 111.36, 272.14 58.3, 317.45 5.65 M182.95 160.36 C231.42 101.82, 278.1 46.5, 317.45 5.65 M187.94 160.72 C237.86 109.73, 286.6 50.44, 322.43 6.01 M187.94 160.72 C218.78 121.89, 252.92 82.89, 322.43 6.01 M193.58 160.33 C236.54 116.24, 272.45 70.9, 325.45 8.63 M193.58 160.33 C229.17 116.44, 266.96 77.5, 325.45 8.63 M198.57 160.69 C241.75 113.32, 285.11 55.16, 328.47 11.26 M198.57 160.69 C236.23 113.7, 274.81 70.84, 328.47 11.26 M204.21 160.3 C249.91 112.91, 294.68 61.48, 331.49 13.88 M204.21 160.3 C235.83 120.69, 268.88 87.32, 331.49 13.88 M209.2 160.66 C245.46 116.8, 288.16 64.65, 332.54 18.77 M209.2 160.66 C231.68 130.9, 259.47 98.98, 332.54 18.77 M214.84 160.26 C262.62 105.43, 304.57 54.82, 333.59 23.66 M214.84 160.26 C246.42 126.21, 273.05 92.29, 333.59 23.66 M219.83 160.62 C260.73 111.48, 306.91 55.45, 334.64 28.55 M219.83 160.62 C260.05 116.93, 297.12 72.3, 334.64 28.55 M225.47 160.23 C261.97 118.25, 293.68 82.05, 335.69 33.44 M225.47 160.23 C252.58 124.94, 279.74 94.57, 335.69 33.44 M230.46 160.59 C270.48 114.41, 309.26 72.05, 335.43 39.83 M230.46 160.59 C262.03 125.23, 289.89 92.57, 335.43 39.83 M236.1 160.19 C262.01 132.92, 287.05 105.56, 335.83 45.48 M236.1 160.19 C259.14 136.15, 280.96 110.66, 335.83 45.48 M241.09 160.55 C270.33 122.28, 300.87 85.8, 335.56 51.87 M241.09 160.55 C274.46 118.3, 312.35 78.26, 335.56 51.87 M246.73 160.16 C271.27 129.92, 301.67 89.73, 335.96 57.52 M246.73 160.16 C279.21 123.85, 311.38 86.82, 335.96 57.52 M251.72 160.52 C282.23 121.78, 311.5 92.53, 335.7 63.92 M251.72 160.52 C273.4 137.37, 289.93 113.79, 335.7 63.92 M256.71 160.88 C275.95 133.38, 295.29 116.97, 335.44 70.31 M256.71 160.88 C287.07 129.47, 313.53 95.47, 335.44 70.31 M262.35 160.48 C288.69 125.44, 313.87 94.21, 335.83 75.96 M262.35 160.48 C287.59 128.94, 314.53 98.78, 335.83 75.96 M267.34 160.84 C289.52 128.17, 321.77 105.65, 335.57 82.35 M267.34 160.84 C286.55 140.38, 303.73 117.88, 335.57 82.35 M272.98 160.45 C300.8 131.43, 319.04 106.04, 335.31 88.75 M272.98 160.45 C291.83 135.23, 313.57 110.94, 335.31 88.75 M277.97 160.81 C290.29 146.92, 299.97 130.75, 335.7 94.39 M277.97 160.81 C296.03 137.33, 317.77 117.25, 335.7 94.39 M283.61 160.41 C299.97 140.51, 319.35 120.74, 335.44 100.79 M283.61 160.41 C296.16 143.51, 313.18 126.96, 335.44 100.79 M288.6 160.77 C306.07 139.18, 321.09 123.29, 335.84 106.44 M288.6 160.77 C306.55 141.62, 323.71 123.17, 335.84 106.44 M294.24 160.38 C305.21 141.82, 325.07 129.31, 335.57 112.83 M294.24 160.38 C309.7 142.36, 325.74 125.86, 335.57 112.83 M299.23 160.74 C308.07 151.28, 320.11 139.64, 335.31 119.23 M299.23 160.74 C307.97 151.63, 316.58 140.35, 335.31 119.23 M304.87 160.35 C310.18 155.05, 318.88 141, 334.39 126.38 M304.87 160.35 C313.96 150.16, 320.48 139.51, 334.39 126.38 M311.17 159.2 C318.68 154.22, 317.39 145.48, 332.17 135.05 M311.17 159.2 C319.33 150.32, 325.31 142.81, 332.17 135.05 M318.13 157.29 C326.33 154.62, 327.81 147.96, 330.59 142.95 M318.13 157.29 C323.01 152.43, 329.01 145.23, 330.59 142.95" stroke="#ced4da" stroke-width="0.5" fill="none"></path><path d="M32 0 M32 0 C121.56 3.53, 209.1 0.94, 301.9 0 M32 0 C116.99 2.91, 203.58 1.27, 301.9 0 M301.9 0 C323.85 -1.21, 334.69 10.13, 333.9 32 M301.9 0 C323.57 -1.07, 337.25 13.85, 333.9 32 M333.9 32 C335.61 57.83, 335.31 92.87, 333.9 126.39 M333.9 32 C335.26 55.67, 333.54 81.09, 333.9 126.39 M333.9 126.39 C337.59 145.4, 321.26 157.92, 301.9 158.39 M333.9 126.39 C338.07 150.42, 324.34 162.25, 301.9 158.39 M301.9 158.39 C214.2 156.97, 128.67 153.52, 32 158.39 M301.9 158.39 C201.18 155.03, 98.03 154.8, 32 158.39 M32 158.39 C10.09 155.39, 0.78 145.86, 0 126.39 M32 158.39 C13.26 160.27, -4.06 149.21, 0 126.39 M0 126.39 C2.91 97.59, 0.72 66.99, 0 32 M0 126.39 C-3.07 89.32, -3.48 52.15, 0 32 M0 32 C3.95 13.94, 14.18 2.27, 32 0 M0 32 C-0.67 8.22, 10.63 1.11, 32 0" stroke="#1971c2" stroke-width="1" fill="none"></path></g><g transform="translate(584.0178946791129 1758.319157803936) rotate(0 79.8499984741211 35)"><text x="79.8499984741211" y="0" font-family="Virgil, Segoe UI Emoji" font-size="28px" fill="#1971c2" text-anchor="middle" style="white-space: pre;" direction="ltr" dominant-baseline="text-before-edge">karmor/</text><text x="79.8499984741211" y="35" font-family="Virgil, Segoe UI Emoji" font-size="28px" fill="#1971c2" text-anchor="middle" style="white-space: pre;" direction="ltr" dominant-baseline="text-before-edge">accuknox-cli</text></g><g stroke-linecap="round" transform="translate(59.05322403262926 94.7684683219727) rotate(0 604.0602127652846 248.26266418102364)"><path d="M32 0 M32 0 C379.39 -0.23, 725.34 -0.14, 1176.12 0 M1176.12 0 C1195.61 -1.15, 1209.87 8.96, 1208.12 32 M1208.12 32 C1207.69 150.79, 1206.05 267.58, 1208.12 464.53 M1208.12 464.53 C1206.47 486.05, 1197.27 497.24, 1176.12 496.53 M1176.12 496.53 C898.52 496.77, 619.9 496.83, 32 496.53 M32 496.53 C8.89 495.89, 0.14 485.54, 0 464.53 M0 464.53 C-2.4 305.36, -1.71 144.87, 0 32 M0 32 C1.58 10.24, 8.81 0.1, 32 0" stroke="#087f5b" stroke-width="2.5" fill="none" stroke-dasharray="8 10"></path></g><g stroke-linecap="round" transform="translate(10.499999999998181 71.64886221144434) rotate(0 648.3539980517157 285.85422806049564)"><path d="M32 0 M32 0 C520.87 -1.8, 1009.6 -2.71, 1264.71 0 M32 0 C369.43 2.24, 706.48 1.94, 1264.71 0 M1264.71 0 C1287.98 1.41, 1297.1 9.46, 1296.71 32 M1264.71 0 C1283.95 0.72, 1296.3 10.24, 1296.71 32 M1296.71 32 C1295.39 194.05, 1294.14 357.12, 1296.71 539.71 M1296.71 32 C1297.03 181.19, 1297.11 330.47, 1296.71 539.71 M1296.71 539.71 C1297.5 559.12, 1284.49 570.59, 1264.71 571.71 M1296.71 539.71 C1295.13 561.07, 1288.34 569.65, 1264.71 571.71 M1264.71 571.71 C812.88 576.69, 360.59 576.54, 32 571.71 M1264.71 571.71 C995.14 569.88, 725.79 569.33, 32 571.71 M32 571.71 C9.94 570.43, 0.33 561.29, 0 539.71 M32 571.71 C12.53 569.67, -1.05 562.7, 0 539.71 M0 539.71 C1.15 397.28, 1.67 254.92, 0 32 M0 539.71 C-0.72 407.03, -1.06 273.49, 0 32 M0 32 C-0.51 12.11, 10.24 1.13, 32 0 M0 32 C-1.8 11.06, 10.96 2.26, 32 0" stroke="#495057" stroke-width="2" fill="none"></path></g><g transform="translate(460.9373339281774 10) rotate(0 220.5 22.5)"><text x="0" y="0" font-family="Virgil, Segoe UI Emoji" font-size="36px" fill="#495057" text-anchor="start" style="white-space: pre;" direction="ltr" dominant-baseline="text-before-edge">ECS With External Relay</text></g><g stroke-linecap="round" transform="translate(10 981.6488622114443) rotate(0 660.0206647183827 243.60422806049564)"><path d="M32 0 M32 0 C516.01 -3.13, 1001.29 -3.44, 1288.04 0 M32 0 C423.28 -1.02, 814.74 -1.3, 1288.04 0 M1288.04 0 C1308.45 0.06, 1318.48 11.22, 1320.04 32 M1288.04 0 C1310.66 -0.34, 1317.92 8.77, 1320.04 32 M1320.04 32 C1319.5 162.9, 1318.35 294.16, 1320.04 455.21 M1320.04 32 C1319.07 125.69, 1319.25 218.77, 1320.04 455.21 M1320.04 455.21 C1320.88 475.9, 1308.44 488.74, 1288.04 487.21 M1320.04 455.21 C1319.67 478.77, 1310.35 485.7, 1288.04 487.21 M1288.04 487.21 C841.99 486.37, 394.87 485.91, 32 487.21 M1288.04 487.21 C853.01 489.09, 417.53 489.2, 32 487.21 M32 487.21 C10.01 488.88, -1.08 476.91, 0 455.21 M32 487.21 C11.53 485.94, 1.21 477.29, 0 455.21 M0 455.21 C-1.38 344.88, -1.82 235.21, 0 32 M0 455.21 C-1.12 316.3, -0.88 176.45, 0 32 M0 32 C1.79 9.28, 12.05 0.11, 32 0 M0 32 C-2.06 10.33, 10.02 0.21, 32 0" stroke="#495057" stroke-width="2" fill="none"></path></g><g transform="translate(38.35399805171528 929.5030902719404) rotate(0 95.51667022705078 22.5)"><text x="0" y="0" font-family="Virgil, Segoe UI Emoji" font-size="36px" fill="#1e1e1e" text-anchor="start" style="white-space: pre;" direction="ltr" dominant-baseline="text-before-edge">Remote VM</text></g><g stroke-linecap="round"><g transform="translate(427.1961485725569 477.00309027194044) rotate(0 198.68924235975692 275.98006529398253)"><path d="M-0.52 -0.94 C65.35 91.34, 329.27 460.9, 395.57 552.9 M1.42 1.17 C67.63 93.2, 331.95 459.46, 397.89 551.26" stroke="#364fc7" stroke-width="2" fill="none"></path></g><g transform="translate(427.1961485725569 477.00309027194044) rotate(0 198.68924235975692 275.98006529398253)"><path d="M371.52 533.13 C382.74 541.78, 387.98 547.62, 399.1 550.89 M373.24 533.56 C380.19 539.33, 386.73 543.47, 396.99 552" stroke="#364fc7" stroke-width="2" fill="none"></path></g><g transform="translate(427.1961485725569 477.00309027194044) rotate(0 198.68924235975692 275.98006529398253)"><path d="M388.17 521.14 C393.77 533.71, 393.46 543.54, 399.1 550.89 M389.89 521.57 C392.54 530.4, 394.69 537.71, 396.99 552" stroke="#364fc7" stroke-width="2" fill="none"></path></g></g><mask></mask><g stroke-linecap="round"><g transform="translate(830.9020366588893 469.00309027194044) rotate(0 -4.367626516430391 278.3728461726662)"><path d="M0.23 -0.52 C-0.94 92.1, -6.46 463.14, -8.04 555.82 M-1.11 1.82 C-2.35 94.62, -7.99 464.8, -8.96 557.27" stroke="#364fc7" stroke-width="2" fill="none"></path></g><g transform="translate(830.9020366588893 469.00309027194044) rotate(0 -4.367626516430391 278.3728461726662)"><path d="M-19.72 529.01 C-16.99 533.13, -15.31 542.1, -7.18 556.76 M-19.72 529.34 C-14.94 538.09, -12.39 546.18, -9.21 557.2" stroke="#364fc7" stroke-width="2" fill="none"></path></g><g transform="translate(830.9020366588893 469.00309027194044) rotate(0 -4.367626516430391 278.3728461726662)"><path d="M0.8 529.29 C-0.89 533.38, -3.64 542.29, -7.18 556.76 M0.8 529.61 C-1.03 538.47, -5.09 546.47, -9.21 557.2" stroke="#364fc7" stroke-width="2" fill="none"></path></g></g><mask></mask><g stroke-linecap="round"><g transform="translate(411.0049597132793 1027.0030902719404) rotate(0 6.939007481470526 -278.63645463176067)"><path d="M0.18 0.64 C2.16 -92.51, 10.43 -464.75, 12.73 -557.92 M-1.18 -0.07 C1.11 -92.49, 12.62 -463.47, 15.06 -556.33" stroke="#c92a2a" stroke-width="2" fill="none"></path></g><g transform="translate(411.0049597132793 1027.0030902719404) rotate(0 6.939007481470526 -278.63645463176067)"><path d="M25.57 -529.05 C20.89 -537.57, 16.63 -547.59, 15.81 -555.26 M25.15 -528.19 C21.88 -533.39, 21.74 -538.44, 15.49 -556.85" stroke="#c92a2a" stroke-width="2" fill="none"></path></g><g transform="translate(411.0049597132793 1027.0030902719404) rotate(0 6.939007481470526 -278.63645463176067)"><path d="M5.06 -529.65 C8.01 -537.98, 11.38 -547.78, 15.81 -555.26 M4.64 -528.78 C5.47 -534, 9.44 -538.93, 15.49 -556.85" stroke="#c92a2a" stroke-width="2" fill="none"></path></g></g><mask></mask><g stroke-linecap="round"><g transform="translate(410.0275795807702 1027.0030902719404) rotate(0 200.82506380541508 -277.1066373414733)"><path d="M0.01 -0.9 C67.12 -93.22, 335.82 -461.39, 403.1 -553.56 M-1.45 1.24 C65.52 -91.48, 334.91 -463.15, 402.39 -555.45" stroke="#c92a2a" stroke-width="2" fill="none"></path></g><g transform="translate(410.0275795807702 1027.0030902719404) rotate(0 200.82506380541508 -277.1066373414733)"><path d="M392.6 -525.84 C397.52 -534.49, 399.67 -544.92, 404.06 -555.26 M393.31 -526.42 C396.79 -534.53, 397.46 -540.51, 402.89 -556.31" stroke="#c92a2a" stroke-width="2" fill="none"></path></g><g transform="translate(410.0275795807702 1027.0030902719404) rotate(0 200.82506380541508 -277.1066373414733)"><path d="M376.01 -537.91 C386.5 -542.54, 394.19 -548.93, 404.06 -555.26 M376.71 -538.49 C384.4 -543.63, 389.31 -546.53, 402.89 -556.31" stroke="#c92a2a" stroke-width="2" fill="none"></path></g></g><mask></mask><g transform="translate(276.8539980517153 803.0030902719404) rotate(0 63.150001525878906 22.5)"><text x="0" y="0" font-family="Virgil, Segoe UI Emoji" font-size="36px" fill="#c92a2a" text-anchor="start" style="white-space: pre;" direction="ltr" dominant-baseline="text-before-edge">Policies</text></g><g transform="translate(859.8539980517153 823.0030902719404) rotate(0 39.53333282470703 22.5)"><text x="0" y="0" font-family="Virgil, Segoe UI Emoji" font-size="36px" fill="#364fc7" text-anchor="start" style="white-space: pre;" direction="ltr" dominant-baseline="text-before-edge">Logs</text></g><g stroke-linecap="round"><g transform="translate(584.8539980517153 1713.0030902719404) rotate(0 0.15869169095549296 -149.62552931749246)"><path d="M-0.31 -0.66 C-0.52 -50.87, -0.76 -250.88, -0.99 -300.86 M1.73 1.61 C1.43 -48.52, -0.74 -249.58, -1.41 -299.78" stroke="#1971c2" stroke-width="4" fill="none"></path></g><g transform="translate(584.8539980517153 1713.0030902719404) rotate(0 0.15869169095549296 -149.62552931749246)"><path d="M8.09 -270.03 C4.25 -280.22, 1.35 -291.56, -2.97 -301.65 M8.72 -272.2 C4.27 -283.46, 1.11 -294.93, -0.47 -300.23" stroke="#1971c2" stroke-width="4" fill="none"></path></g><g transform="translate(584.8539980517153 1713.0030902719404) rotate(0 0.15869169095549296 -149.62552931749246)"><path d="M-12.43 -269.79 C-9.7 -280.01, -6.04 -291.42, -2.97 -301.65 M-11.8 -271.95 C-8.06 -283.37, -3.04 -294.94, -0.47 -300.23" stroke="#1971c2" stroke-width="4" fill="none"></path></g></g><mask></mask><g stroke-linecap="round"><g transform="translate(727.6802544881893 1708.6286195894331) rotate(0 0.8782201663111664 -149.78604303784664)"><path d="M0.5 1.09 C0.43 -49.03, 0.14 -250.44, 0.33 -300.66 M-0.69 0.61 C-0.49 -49.37, 2.17 -249.52, 2.45 -299.47" stroke="#c92a2a" stroke-width="4" fill="none"></path></g><g transform="translate(727.6802544881893 1708.6286195894331) rotate(0 0.8782201663111664 -149.78604303784664)"><path d="M-7.97 -28.98 C-7.1 -16.53, -2.66 -8.26, 0.25 0.22 M-9.12 -27.23 C-7.05 -18.82, -3.2 -12.1, -0.26 0.55" stroke="#c92a2a" stroke-width="4" fill="none"></path></g><g transform="translate(727.6802544881893 1708.6286195894331) rotate(0 0.8782201663111664 -149.78604303784664)"><path d="M12.55 -29.01 C5.9 -16.46, 2.83 -8.18, 0.25 0.22 M11.4 -27.25 C7.81 -18.67, 6 -11.94, -0.26 0.55" stroke="#c92a2a" stroke-width="4" fill="none"></path></g></g><mask></mask><g transform="translate(433.7039965258364 1564.5030902719404) rotate(0 63.150001525878906 22.5)"><text x="0" y="0" font-family="Virgil, Segoe UI Emoji" font-size="36px" fill="#1971c2" text-anchor="start" style="white-space: pre;" direction="ltr" dominant-baseline="text-before-edge">Policies</text></g><g transform="translate(751.3206652270082 1567.5030902719404) rotate(0 39.53333282470703 22.5)"><text x="0" y="0" font-family="Virgil, Segoe UI Emoji" font-size="36px" fill="#c92a2a" text-anchor="start" style="white-space: pre;" direction="ltr" dominant-baseline="text-before-edge">Logs</text></g></svg>